<?xml version="1.0" encoding="UTF-8" standalone="no"?>
<svg
   xmlns:dc="http://purl.org/dc/elements/1.1/"
   xmlns:cc="http://creativecommons.org/ns#"
   xmlns:rdf="http://www.w3.org/1999/02/22-rdf-syntax-ns#"
   xmlns:svg="http://www.w3.org/2000/svg"
   xmlns="http://www.w3.org/2000/svg"
   version="1.1"
   id="svg37654"
   viewBox="0 0 1029.8666 1060.4128"
   height="299.27206mm"
   width="290.65125mm">
  <defs
     id="defs37656" />
  <metadata
     id="metadata37659">
    <rdf:RDF>
      <cc:Work
         rdf:about="">
        <dc:format>image/svg+xml</dc:format>
        <dc:type
           rdf:resource="http://purl.org/dc/dcmitype/StillImage" />
        <dc:title></dc:title>
      </cc:Work>
    </rdf:RDF>
  </metadata>
  <g
     transform="translate(83.967329,-22.381186)"
     id="layer1">
    <path
       id="path38282"
       d="m 548.57979,1080.4878 c -5.02463,-3.0534 -2.2636,-18.5103 3.30644,-18.5103 1.92982,0 2.45984,-1.623 1.17784,-3.6066 -1.28206,-1.9836 5.0165,-18.4064 13.99674,-36.4946 8.98027,-18.0885 20.36199,-41.70022 25.29277,-52.47042 8.53567,-18.64478 34.31121,-66.58861 56.46794,-105.03317 5.64294,-9.79123 11.80037,-21.00664 13.68315,-24.92313 1.88282,-3.91649 8.58644,-12.58831 14.89694,-19.27027 6.3105,-6.68225 12.45087,-15.09402 13.64526,-18.69235 1.19437,-3.59861 3.62126,-6.54296 5.39306,-6.54296 1.7718,0 4.15395,-2.80392 5.29363,-6.23078 1.13974,-3.42686 10.46773,-14.86899 20.72893,-25.427 10.26119,-10.558 18.65735,-20.17121 18.65813,-21.36268 0.003,-4.26085 39.62731,-43.11159 43.9701,-43.11159 2.43711,0 4.43106,-1.6022 4.43106,-3.56045 0,-1.95824 1.67547,-3.56044 3.72327,-3.56044 2.0478,0 6.89833,-2.80393 10.77897,-6.23078 23.47119,-20.72724 39.45741,-29.4521 53.62268,-29.26593 5.9967,0.0786 2.68493,3.19021 -12.31647,11.57145 -11.28525,6.30498 -25.24213,15.46905 -31.01532,20.36481 -5.77316,4.89547 -11.55362,8.38186 -12.84544,7.74753 -1.29183,-0.63461 -3.42077,1.76883 -4.73103,5.34067 -1.31021,3.57184 -4.72657,6.49426 -7.59191,6.49426 -2.86531,0 -5.73467,3.52911 -6.37639,7.84266 -0.64168,4.31355 -4.41148,8.82735 -8.37736,10.03106 -3.96586,1.20372 -7.34293,4.88436 -7.50461,8.17934 -0.20552,4.18794 -0.89266,4.55538 -2.28341,1.22052 -1.20914,-2.89934 -6.27672,2.40772 -12.91946,13.52999 -6.01145,10.06552 -13.36125,19.1928 -16.33293,20.28343 -2.97165,1.09035 -5.40297,3.58352 -5.40297,5.53977 0,1.95654 -5.02642,9.62631 -11.16983,17.04372 -6.1434,7.4174 -11.16982,14.5514 -11.16982,15.8531 0,1.3017 -4.85568,8.28103 -10.79034,15.50959 -9.62553,11.72412 -41.55823,66.63218 -55.26795,95.03315 -2.83586,5.87474 -6.70068,13.0845 -8.58843,16.02201 -3.89497,6.06045 -26.42482,50.69706 -37.73911,74.76939 -4.1418,8.8119 -11.82509,24.033 -17.07392,33.8242 -5.24886,9.7913 -12.19602,22.9572 -15.43812,29.2578 -6.37291,12.3846 -7.31832,12.9757 -14.13209,8.835 z m -80.11857,-45.8745 c -8.13574,-2.0391 -12.73098,-18.342 -17.70509,-62.81395 -2.15256,-19.24521 -7.20555,-43.94759 -11.22883,-54.89411 -5.08882,-13.84529 -6.15931,-21.2345 -3.5173,-24.27854 6.89967,-7.95005 19.0609,-1.06415 26.49187,15.00002 6.11284,13.21495 8.77599,15.49335 18.10896,15.49335 19.8664,0 43.93177,-8.00502 45.91976,-15.2746 1.02342,-3.74245 3.64905,-5.7477 5.83467,-4.45597 2.6163,1.54609 3.97389,-3.80483 3.97389,-15.66368 0,-24.2831 0.20732,-23.48955 -5.82906,-22.30691 -6.17852,1.21027 -6.75635,-2.34334 -1.61748,-9.94732 2.40615,-3.56045 3.62825,-3.85724 3.66626,-0.89011 0.0298,2.44788 1.73248,4.45056 3.78028,4.45056 6.15127,0 4.19268,-10.73261 -2.40005,-13.15172 -3.62715,-1.33104 -7.9684,0.1652 -10.64946,3.6721 -6.52043,8.52713 -7.7682,7.47466 -8.19465,-6.91268 -0.2091,-7.05737 -2.07077,-14.448 -4.1368,-16.42391 -5.55039,-5.30763 -11.85178,-0.0513 -11.85178,9.88351 0,4.77983 -1.41582,8.69091 -3.14619,8.69091 -4.41381,0 -13.23019,-10.66624 -18.39369,-22.25279 -2.39987,-5.3851 -5.84244,-9.79123 -7.65017,-9.79123 -3.9721,0 -1.01982,17.85806 3.94733,23.87693 1.9493,2.36214 2.46329,5.96702 1.14224,8.011 -1.32108,2.04398 -0.70349,3.71654 1.3724,3.71654 2.07586,0 4.78849,6.00832 6.02807,13.35167 1.23955,7.34335 4.66645,17.60427 7.61526,22.80196 5.93713,10.46514 7.3302,29.51809 1.92466,26.32337 -1.89026,-1.11712 -4.53659,-6.81925 -5.88075,-12.67177 -1.34413,-5.85223 -3.98628,-10.64032 -5.87139,-10.64032 -1.88505,0 -3.42741,-2.72389 -3.42741,-6.05276 0,-4.37736 -1.1261,-4.97608 -4.0682,-2.16247 -2.9421,2.81332 -2.89444,5.98753 0.17217,11.46691 4.12693,7.37411 2.60557,14.55055 -3.08466,14.55055 -1.54987,0 -6.36978,-6.00832 -10.71094,-13.35167 -10.64701,-18.01074 -45.29035,-50.73636 -53.70912,-50.73636 -4.30565,0 -6.78785,2.60396 -6.78785,7.12089 0,9.89348 -6.91644,8.91763 -11.08374,-1.56375 -2.89659,-7.28553 -13.83512,-16.23848 -19.83966,-16.23848 -0.89469,0 -2.73801,8.011 -4.09626,17.80223 -2.69434,19.42266 -8.41856,24.2643 -8.41856,7.12089 0,-12.64015 -2.58422,-15.87703 -10.38868,-13.01329 -3.36152,1.23363 -5.74548,6.41792 -5.74548,12.49461 0,5.71238 -2.50291,14.97523 -5.56198,20.58422 -3.05907,5.60898 -5.57228,13.80314 -5.58491,18.20926 -0.0119,4.40612 -1.69841,8.011 -3.74621,8.011 -2.1276,0 -3.72327,-10.68134 -3.72327,-24.92312 0,-13.70772 -1.47031,-24.92313 -3.2674,-24.92313 -5.676,0 -12.54433,10.37742 -10.40193,15.71638 2.34801,5.8511 -6.58219,14.42152 -11.80862,11.33276 -5.59742,-3.30836 -12.58169,7.57578 -9.94987,15.50532 2.22101,6.69165 -0.60049,8.86238 -8.32065,6.40168 -1.53584,-0.48963 -2.79246,-6.49795 -2.79246,-13.35167 0,-18.46647 -7.12444,-17.03346 -9.50811,1.91239 -1.87108,14.87155 -7.41694,22.80964 -16.03834,22.95604 -1.76376,0.0285 -2.10672,-5.55315 -0.76214,-12.40687 2.82171,-14.38306 -3.86378,-17.54275 -7.53358,-3.56045 -1.28489,4.89548 -3.63463,8.90112 -5.22161,8.90112 -1.58692,0 -3.76164,3.2044 -4.83269,7.12089 -2.10755,7.7068 -13.82321,9.97381 -13.80033,2.67034 0.006,-2.44788 3.18748,-9.42749 7.06627,-15.51016 4.42423,-6.93803 5.87979,-12.87401 3.90589,-15.92801 -1.883,-2.91359 -1.46721,-5.86107 1.0354,-7.33994 2.3,-1.35952 4.74857,-6.02285 5.44128,-10.36317 1.06351,-6.66402 0.3888,-7.20065 -4.33744,-3.44993 -3.07825,2.44303 -4.67866,5.86249 -3.55641,7.59884 1.1222,1.73636 0.45248,3.15712 -1.48827,3.15712 -1.94077,0 -4.62877,5.60756 -5.97338,12.46157 -2.44699,12.47295 -7.56051,16.37691 -10.49373,8.011 -0.85823,-2.44788 -2.74149,4.03612 -4.18499,14.40898 -1.62719,11.69279 -4.75039,19.63971 -8.21861,20.91236 -7.71254,2.83041 -10.95173,-1.18463 -5.77146,-7.15337 2.35722,-2.71619 6.10173,-14.37081 8.32113,-25.89925 2.2194,-11.52873 5.5727,-22.7467 7.45176,-24.92911 5.08105,-5.90151 8.39846,-52.42715 3.53318,-49.55173 -2.15292,1.27236 -3.91438,6.27579 -3.91438,11.11885 0,4.84306 -2.51321,14.55738 -5.58491,21.58741 -3.07171,7.03003 -5.58492,16.8412 -5.58492,21.80218 0,11.56832 -16.86681,32.83558 -26.04126,32.83558 -3.87527,0 -9.33767,-3.12892 -12.13867,-6.95284 -4.99202,-6.81555 -5.28747,-6.78023 -14.94171,1.78022 -5.41695,4.80318 -10.65372,8.73306 -11.63726,8.73306 -0.98351,0 -2.47803,-5.20708 -3.32113,-11.57145 -1.3931,-10.51613 -1.79381,-10.84084 -4.39343,-3.56044 -2.0607,5.77105 -5.80077,8.011 -13.37635,8.011 -5.78371,0 -11.593445,1.66743 -12.910561,3.70514 -1.317086,2.038 -5.609782,2.72958 -9.539326,1.53698 -4.230383,-1.28404 -9.59851,0.1766 -13.160641,3.58437 -5.534483,5.29253 -6.547064,5.29339 -12.650404,0 -4.380923,-3.79059 -7.466892,-4.45255 -9.085384,-1.94828 -4.02054,6.22082 -9.458098,4.307 -9.458098,-3.32859 0,-9.40613 -6.024794,-9.14408 -8.627928,0.37513 -2.479939,9.06832 -10.312605,7.32626 -16.042485,-3.56785 -8.2424647,-15.67166 -26.1657095,-32.2209 -30.454385,-28.11984 -2.898315,2.77174 -4.78396,0.95506 -6.692093,-6.44725 -1.461192,-5.66852 -5.028892,-13.81083 -7.928191,-18.09448 -10.167427,-15.02166 -20.576211,-65.20088 -13.524718,-65.20088 3.123142,0 19.974144,17.45444 19.974144,20.68961 0,1.38629 3.465265,4.59012 7.700594,7.11947 5.9654292,3.56244 7.1805866,6.86283 5.3927897,14.64653 -1.6301987,7.09754 -0.696282,10.63947 3.1804205,12.06223 3.0185326,1.10744 6.2277862,5.71665 7.1316482,10.2424 l 1.6433637,8.22891 0.5070503,-8.01101 c 0.7462633,-11.79049 6.6601026,-9.74508 9.3765436,3.24314 2.395436,11.45325 10.81486,19.19565 29.168515,26.82213 8.904225,3.7003 10.898797,3.34311 15.361752,-2.75009 3.063093,-4.18168 7.473593,-6.14191 10.950118,-4.86614 3.651073,1.33987 7.374019,-0.63831 9.986387,-5.3062 3.328428,-5.94709 5.585417,-6.71529 11.235053,-3.82392 5.610766,2.87143 8.219887,2.04825 12.641765,-3.98884 3.83036,-5.2293 8.0434,-6.98901 13.47953,-5.62949 4.93462,1.23391 8.67172,0.0741 9.93989,-3.08677 1.11773,-2.78541 4.54782,-5.06438 7.62244,-5.06438 4.10367,0 4.96896,2.36699 3.25396,8.90112 -1.34717,5.13274 -0.72994,8.90112 1.45801,8.90112 2.08682,0 3.79422,-2.2072 3.79422,-4.90487 0,-2.6974 2.51321,-6.8993 5.58491,-9.33692 3.0717,-2.43791 5.58491,-8.07025 5.58491,-12.51653 0,-4.44658 2.31647,-8.93445 5.14774,-9.97324 2.83124,-1.03908 6.66124,-8.00901 8.51108,-15.4888 4.19738,-16.97222 16.15755,-21.36154 16.07132,-5.89809 -0.031,5.52894 -2.4705,16.46122 -5.42151,24.29421 -2.95098,7.83298 -5.29646,20.65058 -5.21219,28.48357 l 0.1531,14.24178 4.57656,-17.80223 c 2.51711,-9.79123 6.44051,-21.0824 8.71865,-25.09175 2.27817,-4.00906 4.244,-23.93645 4.3685,-44.28312 0.1394,-22.78059 1.85357,-38.44712 4.46156,-40.77651 3.00963,-2.68828 4.73124,-2.48861 5.9494,0.68987 2.64841,6.91012 8.52478,1.44383 8.52478,-7.92983 0,-6.80216 1.73421,-8.19557 9.22276,-7.40943 11.10328,1.16555 12.28329,-2.05907 12.96152,-35.41932 0.2785,-13.70772 1.96803,-31.10679 3.7541,-38.66448 4.7688,-20.17916 0.93294,-37.88517 -8.20752,-37.88517 -4.93918,0 -6.6683,-1.71807 -5.26033,-5.22662 1.15353,-2.87468 0.49507,-6.17365 -1.46331,-7.33105 -1.95835,-1.15743 -3.66987,0.79401 -3.8034,4.33651 -0.13314,3.5425 -5.78424,-4.93481 -12.55729,-18.83849 -8.31687,-17.07291 -14.88589,-25.92239 -20.23528,-27.26012 -6.32283,-1.58112 -7.92071,-4.70557 -7.92071,-15.48771 0,-13.68402 5.45796,-13.45521 8.05871,0.3379 0.73426,3.89399 4.15967,7.60021 7.61204,8.236 5.25685,0.96807 5.96373,-1.05071 4.34911,-12.42069 l -1.92794,-13.57667 7.56495,9.19478 c 5.92912,7.20649 10.00667,8.85204 18.85668,7.60996 l 11.29174,-1.5848 -9.28626,-10.55347 c -10.11021,-11.48982 -12.8447,-20.82403 -4.05751,-13.85026 3.03051,2.40516 9.38763,3.15157 15.12114,1.7755 7.99527,-1.91894 10.276,-0.97138 11.89285,4.94104 1.10024,4.02345 4.24424,8.13867 6.98659,9.145 3.83295,1.40652 4.56259,-1.53048 3.15487,-12.69886 -1.82346,-14.46624 -1.7842,-14.51953 9.15052,-12.42824 8.68997,1.66199 11.36177,0.71098 12.80235,-4.55683 1.00126,-3.66142 -0.0801,-8.59053 -2.40295,-10.95364 -3.28273,-3.33953 -2.4665,-3.43429 3.66442,-0.42552 11.2215,5.50705 13.59084,1.12055 5.02168,-9.29695 -8.70447,-10.58202 -9.2783,-15.06507 -1.92841,-15.06507 7.41098,0 28.5366,22.1014 26.37522,27.59346 -0.96334,2.44779 0.0372,4.45055 2.22384,4.45055 2.18645,0 11.35512,7.47102 20.37486,16.60231 19.96416,20.21091 25.01944,18.22797 9.28444,-3.64194 -6.34079,-8.81299 -11.52871,-18.53876 -11.52871,-21.61291 0,-3.07409 -1.76263,-5.58924 -3.91698,-5.58924 -2.15431,0 -5.66849,-4.80472 -7.80922,-10.6771 -2.14077,-5.87243 -5.40769,-9.78151 -7.25982,-8.68689 -4.02409,2.37824 -11.76885,-15.42163 -8.74543,-20.09971 1.15939,-1.7939 4.9412,-3.28618 8.40399,-3.31618 5.42582,-0.047 5.52412,-0.53153 0.71109,-3.50592 -4.81304,-2.9744 -4.71474,-3.45894 0.71108,-3.50593 3.4628,-0.0285 7.23802,-1.51214 8.38946,-3.29367 3.10983,-4.81173 -1.73731,-14.56308 -7.23891,-14.56308 -8.89532,0 -9.56259,-10.4862 -0.7994,-12.56285 8.5974,-2.03738 23.47095,-0.76818 26.65254,2.27432 3.0672,2.93307 28.13433,-0.93628 28.13433,-4.3428 0,-1.74399 -6.75446,-3.17091 -15.00994,-3.17091 -8.56815,0 -15.78058,-1.91005 -16.80552,-4.45055 -0.98756,-2.44782 -6.89881,-4.62599 -13.1361,-4.84039 -14.12208,-0.48547 -22.62198,-7.34301 -14.81824,-11.95506 2.92888,-1.73098 9.61677,-2.64804 14.86197,-2.03792 5.2452,0.61012 11.63106,1.29202 14.19082,1.51527 2.55974,0.22331 4.6541,2.98069 4.6541,6.12759 0,3.75456 2.02471,4.97858 5.88944,3.56044 3.23916,-1.18867 7.42784,-2.16116 9.30819,-2.16116 1.88028,0 3.41874,-1.6022 3.41874,-3.56045 0,-1.95824 -2.40032,-3.56044 -5.334,-3.56044 -2.93373,0 -6.36614,-3.10967 -7.62758,-6.91037 -1.26148,-3.80071 -8.85026,-9.80895 -16.86402,-13.35168 -8.01371,-3.5427 -15.4193,-8.44407 -16.45681,-10.89186 -2.47997,-5.8509 1.50497,-5.61408 18.27374,1.08597 12.89873,5.15376 14.20905,5.09217 18.95265,-0.89012 2.80276,-3.53467 5.14917,-4.55116 5.21434,-2.25897 0.0652,2.29219 5.14482,5.22337 11.28822,6.51368 6.14341,1.2903 11.16983,3.42982 11.16983,4.75439 0,1.32463 5.44527,4.67396 12.10064,7.4429 6.65533,2.76895 13.26614,6.71862 14.69066,8.77704 1.42447,2.0584 3.55826,2.81663 4.74173,1.68495 3.35914,-3.21227 -2.02796,-13.75817 -7.02805,-13.75817 -2.46645,0 -8.40781,-3.49527 -13.20297,-7.76732 -4.79522,-4.272 -12.23191,-8.144 -16.52601,-8.60435 -12.97796,-1.39139 -28.86529,-8.33426 -26.70832,-11.67171 1.11388,-1.72351 -3.03524,-4.10146 -9.22032,-5.28439 -9.45619,-1.80853 -11.04376,-3.592 -9.97715,-11.20825 0.69762,-4.98164 2.4344,-9.01545 3.85949,-8.96407 1.42503,0.0513 5.20311,0.0934 8.39565,0.0934 3.19258,0 4.76916,1.6022 3.50354,3.56044 -1.26561,1.95825 -0.78278,3.56045 1.07293,3.56045 1.85574,0 5.19215,-3.60494 7.41432,-8.011 2.22211,-4.40604 4.15363,-6.00824 4.29222,-3.56045 0.35967,6.35272 18.86836,5.68572 18.86836,-0.67996 0,-6.9719 -6.86017,-10.56553 -22.01315,-11.53149 -6.98773,-0.4454 -13.87694,-2.62322 -15.30936,-4.83956 -1.43242,-2.21639 -3.63529,-4.0333 -4.89527,-4.03766 -1.25996,-0.003 -5.6802,-0.85547 -9.82271,-1.89136 -10.15623,-2.53974 -9.57868,-8.16055 0.84548,-8.22837 8.08516,-0.0527 22.4374,-6.4403 16.75473,-7.45694 -7.15628,-1.28025 -8.96299,-1.95306 -17.68555,-6.58568 l -9.30819,-4.94364 10.24538,-2.63487 c 9.50719,-2.44509 21.87653,-1.95383 54.91192,2.18075 21.10786,2.64183 23.86362,2.84255 30.93674,2.25351 9.65001,-0.80358 3.83059,-7.68176 -6.49929,-7.68176 -4.74792,0 -10.73238,-2.41945 -13.29882,-5.37662 -9.08324,-10.46596 -60.34623,-19.82136 -65.43841,-11.94238 -1.12101,1.73448 -5.38749,0.91019 -9.48116,-1.83169 -4.09363,-2.74192 -10.4548,-4.23212 -14.13596,-3.31159 -4.5107,1.12801 -7.35346,-0.74168 -8.71874,-5.73422 -2.20543,-8.06493 6.56055,-10.7971 9.48851,-2.9574 2.50639,6.71099 5.1089,2.38995 7.50549,-12.46156 1.65233,-10.23967 0.89558,-13.35167 -3.24681,-13.35167 -5.97029,0 -20.76973,-7.22278 -24.33294,-11.87554 -1.25289,-1.63596 -3.7661,-3.23816 -5.58491,-3.56045 -1.81886,-0.32229 -3.07432,-2.58876 -2.78989,-5.03658 0.473,-4.07079 -8.423,-6.16191 -20.06431,-4.71634 -2.55976,0.31799 -4.65409,-1.89549 -4.65409,-4.91868 0,-4.22249 4.31572,-5.49676 18.61637,-5.49676 15.67603,0 18.61637,-1.04737 18.61637,-6.63129 0,-5.16581 -2.26274,-6.35295 -10.239,-5.37186 -5.63147,0.69269 -17.77864,1.96702 -26.99374,2.83184 -9.2151,0.86481 -23.28104,4.20195 -31.25763,7.41586 -10.67829,4.30248 -15.20591,4.75565 -17.16879,1.71853 -1.88153,-2.91125 -9.11708,-0.98852 -24.59151,6.53476 -38.55286,18.7435 -57.66866,44.9303 -56.90056,77.94839 0.37295,16.0326 0.63224,16.45496 4.44202,7.23525 2.22526,-5.38519 5.39797,-9.79122 7.05045,-9.79122 1.6525,0 3.00453,-2.276 3.00453,-5.05777 0,-2.78176 4.92583,-6.09238 10.94634,-7.35688 8.33295,-1.75017 11.22188,-4.5695 12.10064,-11.80906 l 1.1543,-9.51003 7.44655,7.23779 c 4.0956,3.98075 12.05408,9.13322 17.68555,11.44985 5.63144,2.31665 10.239,6.54179 10.239,9.38915 0,2.84739 3.7698,6.23769 8.37737,7.53392 23.02264,6.47714 35.14213,13.78631 39.89902,24.06287 5.51074,11.90525 10.82722,54.0893 9.23262,73.25692 -1.67816,20.17144 -8.20351,21.23704 -11.11636,1.81538 -1.43048,-9.5379 -5.61559,-20.54606 -9.30023,-24.46255 -3.68464,-3.91649 -8.20592,-12.7286 -10.04727,-19.58245 -2.87175,-10.68932 -4.72394,-12.30431 -13.02357,-11.35566 -6.07787,0.69468 -10.96683,-1.10032 -13.14795,-4.82729 -2.14035,-3.65731 -10.02707,-6.63974 -20.5606,-7.7751 -15.47161,-1.6676 -16.9115,-1.19506 -15.21884,4.99468 1.2954,4.73696 -0.98714,8.29855 -7.43228,11.59706 -11.86408,6.07176 -17.13236,29.33509 -8.51045,37.57994 11.06837,10.58435 21.89181,5.19461 26.75157,-13.32142 3.54927,-13.52298 8.38717,-12.21444 11.38765,3.08015 1.79486,9.14901 1.039,13.78329 -2.62375,16.0861 -5.67745,3.56942 -3.25756,5.95241 35.3306,34.7924 11.52716,8.61517 20.95848,18.51264 20.95848,21.99435 0,7.74212 -16.96752,21.08907 -26.8098,21.08907 -18.50283,0 -35.37003,-22.64994 -30.54824,-41.02136 2.54252,-9.6872 -3.55653,-19.50623 -12.11622,-19.50623 -4.00746,0 -4.81959,3.61818 -3.39646,15.1319 1.54018,12.46048 -0.0774,18.11376 -9.1631,32.02237 -9.21879,14.11244 -15.97144,19.22219 -41.05663,31.0678 -16.512717,7.7976 -35.365052,17.66745 -41.894066,21.93306 -22.127864,14.45675 -46.907741,39.8226 -49.368348,50.53575 -1.340885,5.83794 -6.8563049,14.46017 -12.2564818,19.16042 -32.3912912,28.19301 -42.7271892,40.04924 -54.4528802,62.46244 -12.189999,23.30079 -13.076406,27.27878 -13.076406,58.68314 0,19.94331 2.363415,41.46228 5.792699,52.74263 3.185961,10.48025 5.280317,21.84234 4.654092,25.24955 -3.431339,18.66813 86.171898,11.52502 135.224393,-10.78018 6.912362,-3.14316 16.942743,-9.3221 22.289718,-13.73079 7.78117,-6.41593 8.92225,-9.22554 5.7166,-14.07601 -6.10027,-9.22996 -1.31986,-10.65189 14.52592,-4.32062 12.12009,4.84272 13.36471,6.26348 8.00069,9.13406 -3.49368,1.86966 -14.30279,10.9693 -24.02021,20.22134 -15.102015,14.37879 -22.534802,18.2366 -51.177501,26.56207 -37.207004,10.81492 -75.278879,12.74782 -104.398902,5.29994 -19.743866,-5.04986 -24.813506,-1.37006 -23.162397,16.81185 l 0.969987,10.68134 58.641564,-0.19938 c 32.252845,-0.10824 58.641563,1.0556 58.641563,2.5883 0,1.5327 -4.44407,5.57139 -9.875701,8.9746 -7.980703,5.00058 -16.732631,6.00064 -45.6101049,5.21193 -50.0316271,-1.36664 -63.3716401,-4.17028 -71.9158391,-15.11452 -8.658369,-11.09065 -6.080345,-32.25708 5.248356,-43.09024 6.778355,-6.482 6.847042,-7.79652 1.351579,-25.87362 -7.720402,-25.39572 -7.771009,-85.27716 -0.08787,-103.85457 12.823045,-31.00517 40.978263,-66.95186 61.535263,-78.5641 7.520179,-4.24801 10.95935221,-9.01377 10.97621119,-15.20997 0.04319,-15.89175 27.36916081,-45.53546 53.18190381,-57.69273 15.316566,-7.21378 41.647916,-18.75347 59.210658,-25.94905 7.56268,-3.09847 17.34888,-10.00773 21.74705,-15.35396 19.24375,-23.39162 22.6224,-51.29797 6.01353,-49.66968 -8.23085,0.80694 -8.75094,-0.79979 -4.55145,-14.06031 1.85002,-5.84167 0.59358,-8.28607 -5.15605,-10.03118 -4.18117,-1.26885 -7.60215,-3.58289 -7.60215,-5.14213 0,-1.55925 -4.1779,-6.83022 -9.2842,-11.71322 -7.37149,-7.04911 -9.07416,-11.8781 -8.26457,-23.43958 0.56081,-8.00879 2.07237,-15.56807 3.35902,-16.79845 1.28664,-1.23037 0.70945,-7.32358 -1.28268,-13.54049 -10.102885,-31.52845 0.98562,-63.78285 32.18389,-93.61674 15.14738,-14.48495 22.38807,-19.07269 27.60351,-17.48977 6.30133,1.9125 16.57522,-1.77732 48.76688,-17.51432 8.90533,-4.3534 21.93839,-8.02422 40.02519,-11.27328 13.17271,-2.3663 9.77908,4.54976 -3.72327,7.58785 -6.65537,1.4975 -13.35726,3.0997 -14.8931,3.56045 -1.53586,0.46077 -4.56681,1.03802 -6.73546,1.28281 -2.16867,0.24467 -3.15736,1.66068 -2.19712,3.14647 0.96028,1.48576 15.30069,2.6744 31.86759,2.64139 17.64907,-0.0353 30.21938,1.42629 30.35767,3.5294 0.12987,1.97414 1.65409,0.23556 3.38741,-3.86354 1.73323,-4.09913 9.38759,-10.2828 17.00964,-13.74153 10.40071,-4.71961 12.57463,-7.06603 8.71324,-9.40467 -2.82975,-1.71386 -3.46956,-3.31341 -1.42176,-3.55455 4.49265,-0.52903 27.24451,-2.31344 36.30192,-2.84711 4.49748,-0.2649 6.51573,-3.3616 6.51573,-9.997133 0,-7.476938 0.99289,-8.663763 4.46793,-5.34067 7.61734,7.284213 17.86856,5.143307 17.90076,-3.738469 0.0179,-5.205429 3.53871,-9.569654 10.05048,-12.461562 11.99681,-5.327824 19.70667,-5.719786 19.70667,-1.001853 0,1.896778 -2.20004,2.641367 -4.88905,1.654639 -2.68895,-0.986699 -7.97501,1.466876 -11.74684,5.45244 -6.69025,7.069309 -6.6671,7.246448 0.94601,7.246448 4.2921,0 8.92957,-1.74177 10.30543,-3.870633 1.37585,-2.128833 5.66176,-3.080355 9.52419,-2.114478 3.86246,0.965878 7.96093,0.304347 9.10772,-1.470037 1.14683,-1.774412 5.33718,-3.226191 9.31191,-3.226191 3.97476,0 7.22682,-2.403302 7.22682,-5.34067 0,-6.47292 5.98452,-7.064951 8.99793,-0.890111 1.71601,3.51641 2.63864,3.485221 4.39561,-0.148685 1.70698,-3.530481 3.43729,-3.635985 7.44654,-0.454142 2.87255,2.279768 5.22283,2.64339 5.22283,0.808051 0,-1.835339 5.66537,-5.920453 12.58973,-9.078056 11.15401,-5.08634 13.48377,-5.142282 20.42901,-0.490373 6.97679,4.673043 7.59602,4.644531 5.62828,-0.258916 -1.21605,-3.030367 -0.35624,-5.509748 1.91064,-5.509748 2.26693,0 4.12163,2.574715 4.12163,5.721609 0,3.771367 2.0215,4.979782 5.93079,3.545236 3.26197,-1.196965 9.96387,-3.144273 14.89309,-4.327338 4.92929,-1.183065 8.96231,-3.539881 8.96231,-5.23736 0,-1.697507 -4.29773,-1.523814 -9.55055,0.385981 -11.88562,4.321271 -12.78909,4.315033 -12.78909,-0.08801 0,-1.958246 2.51321,-3.560447 5.58491,-3.560447 3.0717,0 5.58491,-1.334455 5.58491,-2.965424 0,-1.630998 3.7698,-2.670079 8.37737,-2.309078 5.76261,0.451493 8.00909,2.599867 7.19753,6.883169 -0.69985,3.693721 0.4361,5.271796 2.79246,3.879178 2.18472,-1.291218 3.97228,-4.656409 3.97228,-7.478191 0,-2.821811 1.67548,-5.130546 3.72328,-5.130546 2.0478,0 3.72327,2.078674 3.72327,4.619294 0,3.461295 6.04767,4.251059 24.12416,3.150369 13.26826,-0.807908 30.44188,-0.302524 38.16356,1.12305 13.85073,2.557169 13.91432,2.644358 4.73121,6.488273 -8.89999,3.725423 -8.65509,3.940616 5.58491,4.907776 30.07944,2.042956 96.91405,12.802055 100.5284,16.183169 2.43201,2.275125 -3.70189,2.847303 -17.68692,1.649911 -11.77562,-1.008205 -22.3462,-0.38487 -23.49023,1.385184 -1.14397,1.770083 1.03474,3.21833 4.84166,3.21833 3.80688,0 8.51334,1.461749 10.45873,3.248352 1.94543,1.786604 9.40127,3.621715 16.56857,4.078022 22.35469,1.423238 25.53874,0.427111 23.41847,-7.326374 -5.311,-19.421124 20.07589,0.709127 60.61752,48.066024 10.05862,11.74947 21.74714,24.60237 25.97451,28.56196 4.22735,3.95961 8.83786,10.06942 10.24553,13.57735 1.40769,3.50792 4.24671,5.38083 6.30898,4.16204 2.06228,-1.21881 3.74958,0.0322 3.74958,2.78296 0,2.74941 3.35094,7.8989 7.44655,11.44328 4.0956,3.54438 7.44654,8.2432 7.44654,10.4419 0,2.19865 3.35095,6.74124 7.44655,10.09464 4.0956,3.3534 7.44655,7.715 7.44655,9.69239 0,6.58295 -7.6983,3.7124 -16.61656,-6.19592 -4.84707,-5.38519 -10.0621,-8.59939 -11.58894,-7.14271 -1.5269,1.45668 0.009,5.58833 3.4065,9.18145 3.40045,3.59315 6.18263,9.40684 6.18263,12.91938 0,5.27308 0.97356,5.61371 5.58491,1.954 4.71614,-3.74288 5.58491,-3.01949 5.58491,4.65039 0,4.99553 2.51321,11.48603 5.58491,14.42342 3.0717,2.93737 5.58491,7.22874 5.58491,9.53636 0,2.30763 2.50991,3.27467 5.5775,2.149 3.51885,-1.29125 7.83865,1.52501 11.70356,7.63009 3.36935,5.32222 9.08958,13.82744 12.71164,18.90056 9.4942,13.29764 15.46458,34.93163 14.05051,50.9129 l -1.22556,13.85094 -21.77859,-28.98283 c -11.97822,-15.94055 -22.5628,-28.98281 -23.52138,-28.98281 -2.3666,0 2.85849,15.57291 5.97315,17.80224 5.11357,3.66014 18.84882,27.7494 18.84882,33.05766 0,3.03262 1.41627,6.04789 3.14723,6.70067 6.44198,2.42922 8.08987,19.84394 2.31171,24.42968 -3.1014,2.46138 -6.02295,3.84633 -6.49235,3.07771 -0.46934,-0.76858 -4.61754,-6.53975 -9.2182,-12.82476 -4.60059,-6.28501 -8.36476,-13.89545 -8.36476,-16.91212 0,-3.01667 -1.51255,-5.48483 -3.36123,-5.48483 -1.84868,0 -9.22362,-8.41156 -16.38878,-18.69234 -17.76335,-25.48753 -31.54336,-40.25765 -34.72262,-37.21749 -1.45577,1.39216 0.98985,6.23309 5.43485,10.75765 4.44499,4.52453 8.08176,10.12594 8.08176,12.44752 0,2.32158 1.37047,4.22109 3.04549,4.22109 3.83617,0 30.46398,48.38977 30.46398,55.3611 0,2.84161 -1.25659,5.15413 -2.79246,5.13909 -2.42823,-0.0256 -6.71431,-6.03988 -25.1321,-35.27573 -13.50303,-21.43438 -32.64682,-46.34528 -42.46995,-55.26426 -14.63839,-13.291 -14.94656,-7.6048 -0.49645,9.15909 12.57931,14.59351 33.65822,51.96082 33.65822,59.6671 0,2.83717 2.36202,7.68795 5.24889,10.77953 6.38986,6.84292 7.57505,13.80618 4.09635,24.06696 -1.59413,4.70204 -4.69058,7.00938 -7.85048,5.84984 -3.94917,-1.44915 -5.21803,1.61383 -5.21803,12.59624 0,11.43581 1.18352,14.07664 5.58491,12.46156 4.32823,-1.58827 5.58491,0.84029 5.58491,10.79305 0,8.17621 1.762,12.8425 4.84943,12.8425 2.66714,0 7.70184,7.61044 11.1882,16.91212 7.34083,19.58553 7.64996,22.25279 2.57874,22.25279 -2.0478,0 -3.72328,-3.2044 -3.72328,-7.12089 0,-3.91649 -1.51159,-7.12089 -3.35902,-7.12089 -1.84748,0 -5.11128,-4.8066 -7.2529,-10.68134 -2.1416,-5.87474 -5.65643,-10.68134 -7.81078,-10.68134 -2.15431,0 -3.91694,-4.90117 -3.91694,-10.89149 0,-6.63813 -1.51314,-9.99717 -3.87474,-8.60147 -4.99166,2.9501 -2.46439,12.01357 12.66685,45.42699 3.35556,7.40986 6.10099,17.30916 6.10099,21.99846 0,4.68931 2.63286,11.04377 5.85087,14.12099 3.66328,3.50314 4.21039,5.595 1.46327,5.595 -2.41315,0 -3.4647,2.29979 -2.33675,5.11064 1.12794,2.81084 0.0506,5.88875 -2.39413,6.83979 -2.4447,0.95106 -1.39295,1.85567 2.3373,2.01025 4.68045,0.19398 6.57187,2.76359 6.10357,8.29211 -1.19648,14.12486 -0.003,16.91212 7.24365,16.91212 9.24158,0 6.32066,12.84891 -3.47799,15.29924 -5.00461,1.25154 -6.27529,3.85898 -4.69555,9.63568 1.84957,6.76348 1.02676,7.57412 -5.6354,5.5521 -5.30477,-1.61003 -10.21809,-0.0567 -15.35377,4.85457 -4.15392,3.97226 -9.80004,6.39752 -12.54699,5.38952 -2.74694,-1.00798 -19.12079,7.26374 -36.38636,18.38167 -31.30835,20.16056 -54.86572,41.20436 -74.18927,66.27338 -5.60969,7.27755 -11.27774,12.20066 -12.59575,10.94026 -3.76977,-3.60488 -17.21076,12.1209 -17.21076,20.13646 0,4.88835 -4.21096,8.90453 -13.03145,12.4288 -8.73841,3.49152 -13.03146,7.55442 -13.03146,12.33254 0,3.91905 -2.09436,8.40692 -4.65409,9.97295 -2.55977,1.56603 -8.7606,10.85822 -13.77966,20.64945 -5.01904,9.79123 -13.54486,24.21103 -18.94625,32.04402 -5.40134,7.83298 -13.90256,20.65059 -18.89151,28.48357 -4.98901,7.83298 -11.12755,17.44618 -13.64133,21.36268 -2.51375,3.91649 -6.05059,10.32529 -7.85965,14.24178 -1.80907,3.91649 -9.3447,15.8964 -16.74583,26.62217 -7.40112,10.72549 -13.45663,21.30002 -13.45663,23.49866 0,2.19865 -5.4279,11.04736 -12.06203,19.66364 -15.69974,20.39081 -25.6768,36.48289 -43.63391,70.37777 -4.48169,8.4597 -12.23417,16.0089 -20.10985,19.5825 -7.04911,3.199 -13.40105,5.6301 -14.11547,5.403 -0.71442,-0.2278 -4.19872,-1.1399 -7.74286,-2.028 z m 34.12512,-38.58924 c 7.76335,-13.66101 18.88748,-33.17824 24.72027,-43.37194 5.83279,-10.1937 9.51794,-19.57334 8.18927,-20.84399 -1.32874,-1.27065 -7.80413,0.2592 -14.3898,3.40208 -6.58564,3.14145 -20.21964,5.71209 -30.29777,5.71209 l -18.32387,0 2.34265,32.93413 c 4.1617,58.50787 6.18779,60.12597 27.75925,22.16763 z m 48.5889,-120.29011 c 0.0337,-8.1463 -1.4298,-12.68317 -3.66626,-11.36124 -2.04781,1.21026 -3.69763,9.71631 -3.66627,18.90255 0.0414,12.09583 1.05235,15.22903 3.66627,11.36124 1.9851,-2.93751 3.63492,-11.44356 3.66626,-18.90255 z m -414.40625,0.43266 c -1.18856,-2.84038 -2.07083,-1.99669 -2.24949,2.15108 -0.16174,3.75328 0.71833,5.85623 1.95556,4.67302 1.2372,-1.18292 1.36948,-4.25402 0.29399,-6.8241 z m 329.59254,-14.91485 c -4.07963,-6.61189 -8.54155,-16.91554 -9.91532,-22.8968 -2.8018,-12.19895 -10.86725,-20.2803 -16.76277,-16.79591 -6.179,3.65188 -0.2085,20.43269 11.49285,32.3018 5.88355,5.96787 10.69739,12.77716 10.69739,15.13189 0,2.35445 2.6787,4.28108 5.95268,4.28108 5.16549,0 4.97182,-1.58995 -1.46483,-12.02206 z m 90.76195,-13.66271 c -3.33733,-1.78592 -5.89123,-7.79766 -5.89123,-13.86723 0,-5.89297 -1.55204,-9.79721 -3.44897,-8.67609 -4.22181,2.49487 1.80632,24.55654 7.17862,26.27182 2.04428,0.65284 3.96793,5.45944 4.27476,10.68134 0.54971,9.35571 0.58143,9.34289 2.16793,-0.88129 1.08297,-6.97876 -0.31868,-11.40795 -4.28111,-13.52855 z m -286.31663,10.77533 c -1.18856,-2.84038 -2.07083,-1.9967 -2.24946,2.15108 -0.16174,3.75328 0.7183,5.85622 1.95553,4.67302 1.2372,-1.18293 1.36945,-4.25402 0.29369,-6.8241 z M 579.6419,847.46059 c -1.23479,-4.40613 -2.26795,-12.69627 -2.29592,-18.42289 l -0.0509,-10.41189 -9.63408,8.63166 c -7.70518,6.90328 -8.45115,8.8621 -3.7258,9.7824 3.24952,0.63291 6.92877,5.03875 8.17607,9.79123 1.24729,4.7522 3.95706,8.64049 6.02169,8.64049 2.07595,0 2.7504,-3.58095 1.50885,-8.011 z M 319.12288,824.09266 c 4.65981,-13.18248 4.64227,-15.74771 -0.13881,-20.31989 -3.48665,-3.334 -5.32672,-11.6757 -5.0716,-22.99108 0.22012,-9.76702 -0.63871,-18.75216 -1.90858,-19.96642 -1.26993,-1.21425 -0.86618,-5.83685 0.89719,-10.27203 2.14395,-5.39251 1.44847,-11.3037 -2.09936,-17.84296 -2.91798,-5.37855 -5.30546,-11.99928 -5.30546,-14.71291 0,-2.71363 -1.67547,-4.93363 -3.72327,-4.93363 -5.91896,0 -4.31274,14.2489 1.86163,16.51448 3.07171,1.12738 5.58492,5.83344 5.58492,10.45803 0,5.65969 -1.66872,7.79596 -5.10446,6.53527 -8.08713,-2.9677 -10.22069,8.45735 -4.16673,22.31289 3.05135,6.98361 5.54791,18.21468 5.54791,24.95816 0,6.74349 1.68,15.26264 3.73331,18.93161 2.49564,4.4591 2.49564,7.40231 0,8.87719 -5.13865,3.03692 -4.75569,20.5076 0.41347,18.86011 2.28069,-0.72719 6.54667,-8.11098 9.47993,-16.40882 z m 269.64036,-3.33542 c -3.09613,-5.08318 -3.79509,-3.93586 -3.79509,6.23078 0,10.16636 0.69896,11.31396 3.79509,6.23078 2.57787,-4.23237 2.57787,-8.22919 0,-12.46156 z m -173.62833,-3.56045 c -2.93769,-5.3851 -5.3515,-11.59794 -5.36413,-13.80598 -0.0119,-2.20805 -2.67165,-6.11657 -5.90899,-8.68578 -5.25434,-4.17 -5.60942,-3.16624 -3.3085,9.35514 2.34167,12.74326 9.95172,22.92785 17.13195,22.92785 1.53494,0 0.38728,-4.40612 -2.55033,-9.79123 z M 222.16302,804.14163 c 1.44165,-6.03766 2.92688,-17.38665 3.30055,-25.21964 0.37366,-7.83298 1.99156,-18.76526 3.59531,-24.29363 1.8339,-6.32193 1.35914,-11.54069 -1.27944,-14.06377 -3.11155,-2.97568 -4.19529,-2.44845 -4.19529,2.04085 0,3.32888 -1.25662,6.05105 -2.79246,6.04906 -1.53586,-0.002 -2.5194,10.29453 -2.18565,22.88113 0.44647,16.8375 -0.78326,23.39442 -4.65409,24.81489 -7.0296,2.57947 -6.88773,18.76925 0.16472,18.76925 3.01183,0 6.59147,-4.88351 8.04659,-10.97814 z m 150.99981,-1.86026 c -0.66765,-6.34671 -5.30393,-18.89515 -10.30289,-27.8857 -4.99893,-8.99056 -10.12078,-22.86547 -11.38187,-30.83318 -1.26109,-7.96771 -4.43052,-16.89019 -7.04318,-19.82742 -2.61267,-2.93751 -5.56213,-9.34631 -6.55434,-14.24178 -0.99223,-4.89576 -1.66963,-1.29059 -1.50536,8.011 0.18497,10.47939 1.97316,16.91212 4.70115,16.91212 2.85903,0 4.58571,7.75095 4.92512,22.10924 0.28744,12.15992 2.18193,23.69576 4.20995,25.63521 2.02799,1.93916 3.68732,8.73363 3.68732,15.09857 0,7.26787 2.42371,12.91986 6.51573,15.19513 10.08894,5.60899 14.0741,2.42908 12.74837,-10.17319 z m 66.3712,10.46486 c -7.21853,-4.46109 -11.16982,-4.46109 -11.16982,0 0,1.95825 3.7698,3.53595 8.37737,3.50576 6.77427,-0.0427 7.30863,-0.71494 2.79245,-3.50576 z M 579.1568,802.0649 c 1.26562,-1.95825 0.52677,-3.56045 -1.6419,-3.56045 -2.16864,0 -3.94301,1.6022 -3.94301,3.56045 0,1.95824 0.73885,3.56044 1.64191,3.56044 0.90302,0 2.67739,-1.6022 3.943,-3.56044 z m -132.23323,-6.23079 c -0.0298,-1.46861 -1.68116,-5.07377 -3.66626,-8.011 -2.91857,-4.31868 -3.62016,-3.80768 -3.66627,2.67033 -0.0298,4.40613 1.61847,8.01101 3.66627,8.01101 2.0478,0 3.69762,-1.20172 3.66626,-2.67034 z m -240.09416,-4.45055 c 1.26562,-1.95825 0.52674,-3.56045 -1.6419,-3.56045 -2.16864,0 -3.94301,1.6022 -3.94301,3.56045 0,1.95824 0.73885,3.56044 1.64191,3.56044 0.90306,0 2.67739,-1.6022 3.943,-3.56044 z m 412.94441,-3.03607 c 1.07915,-1.6697 -0.28774,-5.97841 -3.03813,-9.57504 -4.64042,-6.0687 -5.00024,-5.85024 -5.00024,3.03607 0,9.32666 4.08768,12.65183 8.03837,6.53897 z m -28.84298,-15.65628 c -1.03287,-2.44788 -1.87799,-0.4452 -1.87799,4.45056 0,4.89547 0.84512,6.89844 1.87799,4.45056 1.03286,-2.44788 1.03286,-6.45324 0,-8.90112 z m -37.26014,-4.29703 c -1.2126,-3.02182 -5.03024,-5.4942 -8.48356,-5.4942 -5.72979,0 -5.68776,0.62465 0.48087,7.14255 7.40797,7.82785 11.46962,6.99129 8.00269,-1.64835 z m -80.6272,-12.61509 c 0,-1.95824 -1.67548,-3.56044 -3.72328,-3.56044 -2.0478,0 -3.72327,1.6022 -3.72327,3.56044 0,1.95825 1.67547,3.56045 3.72327,3.56045 2.0478,0 3.72328,-1.6022 3.72328,-3.56045 z m 70.7422,0 c 0,-1.95824 -1.67547,-3.56044 -3.72327,-3.56044 -2.0478,0 -3.72328,1.6022 -3.72328,3.56044 0,1.95825 1.67548,3.56045 3.72328,3.56045 2.0478,0 3.72327,-1.6022 3.72327,-3.56045 z m 101.76741,-7.12089 c 2.42898,0 6.53113,-3.2383 9.11589,-7.19638 4.01384,-6.1459 3.39765,-9.02843 -4.2227,-19.75221 -6.73654,-9.48019 -9.45825,-11.22082 -11.10963,-7.1058 -1.26102,3.14259 -4.61188,4.56108 -7.91311,3.34967 -3.97604,-1.45921 -5.72583,0.0741 -5.72583,5.01966 0,3.91649 2.51321,8.04319 5.58491,9.17028 3.47902,1.27664 5.74775,7.12602 6.01681,15.51301 0.23739,7.40488 1.19815,10.65941 2.13466,7.23255 0.93647,-3.42686 3.69006,-6.23078 6.119,-6.23078 z M 290.60308,737.76665 c 0,-4.03213 -1.60232,-6.38402 -3.56067,-5.22673 -1.95839,1.15757 -2.61684,4.45654 -1.46331,7.3311 2.95342,7.35987 5.02398,6.49254 5.02398,-2.10437 z m 127.78544,-6.484 c -1.794,-1.21397 -5.18101,-6.21255 -7.5267,-11.10802 -4.16114,-8.68464 -4.23367,-8.62312 -2.98008,2.52307 1.53124,13.61458 10.36142,25.1171 12.47144,16.24561 0.71344,-2.99961 -0.17037,-6.44697 -1.96466,-7.66066 z m -20.99036,2.46611 c -1.18856,-2.84038 -2.07083,-1.9967 -2.24945,2.15108 -0.16174,3.75328 0.71829,5.85622 1.95552,4.67301 1.2372,-1.18292 1.36945,-4.25402 0.29369,-6.82409 z m -160.10078,-3.56045 c -1.18856,-2.84038 -2.07082,-1.9967 -2.24945,2.15108 -0.16174,3.75328 0.71829,5.85622 1.95552,4.67302 1.2372,-1.18293 1.36945,-4.25403 0.29369,-6.8241 z m 230.16121,-2.89279 c -1.26562,-1.95824 -3.97658,-3.56045 -6.02438,-3.56045 -2.0478,0 -2.68779,1.60221 -1.42217,3.56045 1.26561,1.95825 3.97657,3.56045 6.02438,3.56045 2.0478,0 2.68778,-1.6022 1.42217,-3.56045 z m 198.5081,-34.0749 c -4.61552,-11.61166 -12.21323,-26.54284 -16.88385,-33.18039 -4.6706,-6.63756 -8.49202,-14.80078 -8.49202,-18.14051 0,-3.33972 -3.36325,-8.9828 -7.4738,-12.54014 -7.37024,-6.37825 -7.43952,-6.29955 -4.99943,5.67899 1.3609,6.68074 4.30523,13.32396 6.54298,14.76267 2.73598,1.759 2.45569,2.63367 -0.8557,2.67033 -3.39816,0.0379 -2.54567,2.94623 2.75067,9.38503 5.33959,6.49126 6.956,12.06997 5.31213,18.33328 -1.52741,5.81956 -0.99236,8.19281 1.51325,6.71195 4.16539,-2.46184 10.0375,7.26331 8.80373,14.58045 -0.41272,2.44788 0.81686,4.45056 2.73244,4.45056 1.91555,0 4.59976,4.25545 5.96486,9.45683 2.18869,8.33885 3.13184,8.83532 7.9793,4.19991 4.8475,-4.63571 4.50537,-7.75238 -2.89456,-26.36896 z m -216.72945,3.81111 c -2.24329,-6.85401 -5.34427,-12.46157 -6.89097,-12.46157 -1.54674,0 -2.84408,-2.80392 -2.88298,-6.23083 -0.0745,-6.56849 -21.71223,-41.77415 -24.20792,-39.38763 -2.019,1.93073 9.1281,32.39605 13.3695,36.53927 1.90447,1.86032 3.46261,7.86864 3.46261,13.35173 0,5.48309 1.79513,9.96925 3.98924,9.96925 2.19405,0 6.50244,2.40316 9.57415,5.34067 7.86897,7.52479 8.17878,6.90983 3.58637,-7.12089 z m 93.3686,4.67301 c -1.18856,-2.84038 -2.07083,-1.9967 -2.24945,2.15108 -0.16174,3.75328 0.71829,5.85622 1.95552,4.67302 1.2372,-1.18293 1.36945,-4.25403 0.29369,-6.8241 z m -136.58127,-7.79766 c 0,-0.73915 -2.51321,-3.33885 -5.58491,-5.77647 -4.57409,-3.63023 -5.58491,-3.38698 -5.58491,1.34414 0,3.17734 2.51321,5.77675 5.58491,5.77675 3.0717,0 5.58491,-0.60499 5.58491,-1.34442 z m 126.59131,-11.1172 c 0,-4.89561 -1.44314,-8.90111 -3.20696,-8.90111 -1.76382,0 -2.40625,4.0055 -1.42759,8.90111 0.97865,4.89553 2.42176,8.90118 3.20696,8.90118 0.78516,0 1.42759,-4.00565 1.42759,-8.90118 z m 169.46615,1.7199 c 6.59976,-6.97383 6.56264,-7.38949 -1.28456,-14.38059 -4.44446,-3.95956 -8.08081,-9.63462 -8.08081,-12.61124 0,-2.97668 -1.67548,-4.4219 -3.72328,-3.21164 -2.0478,1.21027 -3.72327,-0.2028 -3.72327,-3.1402 0,-2.93737 -1.93047,-6.48158 -4.28996,-7.87607 -4.24947,-2.51146 -3.79041,2.992 3.81478,45.73068 0.91241,5.12733 10.54428,2.61394 17.2871,-4.51094 z M 241.11058,669.47971 c -0.89058,-4.42885 -1.65307,-1.6437 -1.69442,6.18928 -0.0414,7.83304 0.68738,11.45672 1.61927,8.05265 0.93189,-3.40424 0.9657,-9.81305 0.0754,-14.24193 z m 257.99583,1.05876 c 0,-3.80093 -1.67547,-7.901 -3.72327,-9.11126 -2.11169,-1.24801 -3.72327,1.74325 -3.72327,6.91074 0,5.0112 1.67547,9.11126 3.72327,9.11126 2.0478,0 3.72327,-3.10983 3.72327,-6.91074 z m 102.98776,-3.139 c -3.40046,-3.59315 -6.18263,-9.26095 -6.18263,-12.59515 0,-3.3342 -2.51321,-6.9844 -5.58492,-8.11155 -3.0717,-1.12721 -5.58491,-5.08241 -5.58491,-8.78941 0,-3.70696 -2.33398,-6.73995 -5.18655,-6.73995 -2.85262,0 -6.15096,-2.4033 -7.32972,-5.34067 -1.1787,-2.93737 -5.12776,-5.21417 -8.77573,-5.05956 -3.90056,0.1652 -4.71551,1.02076 -1.97846,2.0769 2.55974,0.9877 4.65409,4.00924 4.65409,6.71455 0,2.70528 3.35095,6.63362 7.44655,8.72967 4.0956,2.09602 7.44655,6.00904 7.44655,8.69558 0,5.24668 23.18274,30.8499 25.72887,28.41518 0.84119,-0.80446 -1.25269,-4.40247 -4.65314,-7.99559 z m -81.82797,-1.29919 c -1.18856,-2.84027 -2.07083,-1.99662 -2.24946,2.15113 -0.16174,3.75328 0.7183,5.85617 1.95553,4.67308 1.2372,-1.18313 1.36945,-4.25403 0.29369,-6.82421 z m -214.77003,-9.6328 c 0,-5.87147 -2.40139,-11.18163 -5.58491,-12.34985 -3.0717,-1.12716 -5.58491,-4.50297 -5.58491,-7.50184 0,-2.9988 -1.67547,-5.45238 -3.72327,-5.45238 -4.61656,0 -4.61701,0.84895 -0.006,12.44402 2.04396,5.14094 5.46204,8.31541 7.59578,7.05438 2.51958,-1.48909 3.03309,0.93193 1.46497,6.90661 -1.50813,5.74793 -0.86565,9.19946 1.71289,9.19946 2.26979,0 4.1269,-4.63519 4.1269,-10.3004 z m 206.12652,-5.72161 c -1.17876,-2.93737 -2.80163,-5.34067 -3.60645,-5.34067 -0.80476,0 -1.46328,2.4033 -1.46328,5.34067 0,2.93736 1.6229,5.34067 3.60642,5.34067 1.98353,0 2.64201,-2.40331 1.46331,-5.34067 z m 229.93742,-10.41186 c 0.24246,1.81002 0.14774,4.76382 -0.20999,6.56398 -0.35821,1.80016 2.11917,1.07449 5.50496,-1.61254 5.68869,-4.51476 5.63397,-5.0672 -0.72076,-7.27803 -3.78216,-1.31589 -8.00519,-1.77305 -9.38444,-1.01596 -2.873,1.577 -17.97034,-17.62321 -17.97034,-22.85385 0,-6.21731 -11.17592,-12.87611 -15.18169,-9.04552 -3.92016,3.74872 7.06025,32.45321 15.99247,41.80679 4.06653,4.25832 6.01583,3.8984 13.1515,-2.42826 4.60754,-4.08514 8.57577,-5.94666 8.81826,-4.13661 z m -241.24694,-3.48183 c 2.3275,-5.80014 -0.79961,-9.91006 -5.44935,-7.16208 -4.22937,2.4996 -4.13328,12.15465 0.12093,12.15465 1.82875,0 4.22648,-2.24667 5.32839,-4.99257 z m 184.95694,-0.13786 c 0,-0.86357 -1.67547,-2.56033 -3.72328,-3.7706 -2.0478,-1.21027 -3.72327,-0.50373 -3.72327,1.57007 0,2.07383 1.67547,3.7706 3.72327,3.7706 2.04781,0 3.72328,-0.70654 3.72328,-1.57007 z m 92.17328,-19.14814 12.12292,-10.09973 -9.33047,-4.77513 c -5.13174,-2.62633 -9.33043,-6.72341 -9.33043,-9.10466 0,-2.38128 -4.18868,-6.95407 -9.30819,-10.16177 -10.26658,-6.43273 -12.91314,-1.49285 -4.4432,8.29333 6.47388,7.47999 14.27247,25.24642 10.86481,24.75186 -11.48291,-1.66664 -19.45307,1.1928 -19.45307,6.9791 0,13.99315 6.64477,12.63944 28.87763,-5.883 z m -23.29271,6.47642 c -1.26562,-1.95824 0.40985,-3.56044 3.72327,-3.56044 3.31342,0 4.98889,1.6022 3.72327,3.56044 -1.26561,1.95825 -2.94109,3.56045 -3.72327,3.56045 -0.78219,0 -2.45766,-1.6022 -3.72327,-3.56045 z m -470.99415,3.56045 c 0,-1.95825 -1.67547,-3.56045 -3.72327,-3.56045 -2.04781,0 -3.72328,1.6022 -3.72328,3.56045 0,1.95825 1.67547,3.56045 3.72328,3.56045 2.0478,0 3.72327,-1.6022 3.72327,-3.56045 z m 463.5476,-17.80223 c 1.26561,-1.95825 0.52677,-3.56045 -1.64191,-3.56045 -2.16864,0 -3.943,1.6022 -3.943,3.56045 0,1.95824 0.73884,3.56044 1.6419,3.56044 0.90303,0 2.67739,-1.6022 3.94301,-3.56044 z M 377.19404,599.59783 c -2.02141,-1.24219 -4.85173,-5.86354 -6.28966,-10.26958 -1.43789,-4.40607 -4.02485,-8.011 -5.74885,-8.011 -1.72396,0 0.3258,6.80934 4.55493,15.13189 4.46957,8.7955 8.41582,13.09581 9.42415,10.26959 0.95405,-2.6743 0.0807,-5.8787 -1.94057,-7.1209 z m 279.60783,1.47189 c 5.41852,-4.80213 9.85187,-11.31889 9.85187,-14.48173 0,-4.07139 2.10958,-5.11035 7.22437,-3.55797 4.92411,1.49451 14.55315,-2.59109 30.24145,-12.83151 25.36294,-16.55547 74.2324,-59.14169 74.2324,-64.68818 0,-1.93358 5.04584,-11.35748 11.21298,-20.94203 9.94713,-15.45918 11.48257,-21.64025 13.60127,-54.75278 2.57978,-40.31934 -1.07073,-59.20623 -19.9071,-102.99559 -16.70049,-38.82393 -54.66761,-80.6115 -81.52781,-89.73158 -13.10628,-4.45014 -50.47607,-3.22959 -63.00211,2.05773 -4.09561,1.72873 -16.20587,4.88578 -26.91171,7.01558 -11.09068,2.20642 -27.49331,9.26853 -38.12537,16.4148 -10.26313,6.89835 -21.15198,12.5424 -24.19747,12.5424 -15.83562,0 -22.12077,32.18857 -14.8709,76.15937 l 2.87088,17.41201 -14.13361,-2.53555 -14.13358,-2.5355 12.05719,14.55767 c 6.63145,8.00673 15.66366,16.37694 20.07157,18.60049 4.40794,2.22357 13.26629,9.32421 19.68522,15.77918 6.41892,6.45503 12.70193,10.7503 13.96227,9.5451 1.26032,-1.20522 2.29149,1.22984 2.29149,5.41128 0,5.73249 -1.60274,7.04362 -6.51573,5.33033 -6.20548,-2.16401 -6.20548,-1.93338 0,4.84267 3.58363,3.91315 6.51573,9.79256 6.51573,13.06527 0,9.29957 13.27004,7.06928 20.4713,-3.44059 7.59188,-11.07991 5.81141,-33.94783 -3.40102,-43.68226 -6.76944,-7.15297 -7.75346,-14.57519 -1.93244,-14.57519 16.04472,0 36.09107,31.42271 31.43379,49.27256 -4.0228,15.41816 -20.32538,33.49406 -28.38937,31.47751 -5.43303,-1.35864 -7.01244,0.17631 -7.01244,6.81418 0,4.7123 1.49625,8.5678 3.32491,8.5678 3.87998,0 8.88195,10.87646 6.18713,13.45348 -1.0082,0.96408 -6.07409,-0.90435 -11.25748,-4.15214 -8.64836,-5.41885 -11.04386,-4.86761 -9.86528,2.27012 0.95694,5.79572 -10.12721,2.14592 -24.02795,-7.91197 -19.05813,-13.7895 -26.74401,-13.77508 -12.6384,0.0256 11.6027,11.35036 14.73183,24.80036 5.76967,24.80036 -2.90103,0 -5.83309,-1.27837 -6.51573,-2.8408 -0.68258,-1.56364 -7.94296,-6.11563 -16.13417,-10.11671 -12.75742,-6.23153 -15.05882,-9.14289 -16.04868,-20.3021 -0.63557,-7.16507 -2.76183,-13.02739 -4.72504,-13.02739 -1.96321,0 -2.56402,3.83073 -1.33516,8.51272 1.22882,4.68193 0.42302,9.5831 -1.79069,10.89143 -2.25103,1.33036 -4.02498,-0.16036 -4.02498,-3.38214 0,-3.16851 -1.67547,-4.77071 -3.72327,-3.56044 -5.82961,3.44534 -4.36023,12.46156 2.03085,12.46156 3.16478,0 9.94287,4.0055 15.06237,8.90112 5.1195,4.89561 10.82421,8.90111 12.67718,8.90111 1.85297,0 4.8595,2.54686 6.68119,5.65969 1.82173,3.11282 4.41819,5.51613 5.76992,5.34067 7.46853,-0.96941 9.90432,0.18799 9.90432,4.70662 0,8.37477 -27.60787,-1.47417 -36.55668,-13.04137 -2.69985,-3.48987 -6.21593,-5.57267 -7.81348,-4.62853 -1.59756,0.94418 -6.64328,-1.61405 -11.21272,-5.68495 -6.13345,-5.46426 -7.72946,-9.85879 -6.09762,-16.78901 1.81473,-7.70694 1.50164,-8.27203 -1.74901,-3.15658 -4.67977,7.36432 -14.19965,8.20769 -16.89277,1.4965 -1.0449,-2.60388 -7.69416,-6.90841 -14.77621,-9.56569 -7.08205,-2.65724 -12.87645,-6.13451 -12.87645,-7.72726 0,-1.59274 -2.51321,-2.89589 -5.58491,-2.89589 -3.0717,0 -5.58491,-1.59397 -5.58491,-3.54222 0,-1.94819 -7.68758,-6.99779 -17.08358,-11.22124 -9.39596,-4.22349 -18.50485,-11.04106 -20.24198,-15.15013 -2.15914,-5.10733 -3.23311,-5.69483 -3.39443,-1.85696 -0.17574,4.18202 -3.08537,5.21423 -11.40585,4.04646 -17.13534,-2.40495 -13.2575,4.21734 5.58491,9.53753 9.4461,2.66714 16.75474,6.88901 16.75474,9.67846 0,2.72121 3.14577,4.94765 6.99067,4.94765 3.84483,0 8.987,2.30031 11.42705,5.11181 2.44006,2.8115 9.28659,6.13049 15.21452,7.37553 5.9279,1.24505 14.6084,6.12696 19.28992,10.84868 4.6815,4.72175 10.60618,8.61264 13.16595,8.64647 2.55973,0.0356 4.65409,2.46483 4.65409,5.4022 0,2.93737 1.81979,5.34067 4.04395,5.34067 4.95222,0 29.46551,21.70303 29.46551,26.0875 0,1.73685 -2.34941,2.29581 -5.22089,1.24209 -11.4334,-4.19552 -9.23711,3.28606 4.12116,14.03878 7.77214,6.25616 12.91505,12.55356 11.42872,13.99418 -1.48636,1.44064 -5.2967,0.5605 -8.46735,-1.95586 -10.8226,-8.58913 -11.20422,0.57748 -0.39449,9.47438 7.61029,6.26362 11.57492,7.63146 13.49744,4.65678 1.55111,-2.39997 5.99066,-3.21981 10.32017,-1.90575 4.17891,1.26829 8.65443,0.6715 9.94561,-1.32631 2.79558,-4.32554 13.1909,0.66817 30.90803,14.84757 33.87875,27.114 73.1581,35.23478 91.55706,18.92893 z m -66.77412,-26.03777 c -2.21213,-1.43871 -7.9561,-11.02739 -12.76431,-21.30816 -4.80823,-10.28081 -10.5379,-18.63395 -12.73261,-18.5626 -2.19474,0.0712 -8.59796,5.93708 -14.2294,13.0349 -12.79248,16.12356 -13.44826,9.35754 -0.93082,-9.6042 5.1195,-7.75516 9.30819,-15.84578 9.30819,-17.97911 0,-2.13337 3.49061,-3.36685 7.75692,-2.74109 5.64442,0.82787 9.70047,6.4337 14.89309,20.58351 3.9249,10.69521 7.13618,22.31115 7.13618,25.81323 0,6.55635 14.24962,8.78855 43.74847,6.85315 6.65533,-0.43662 12.10064,0.87767 12.10064,2.92068 0,4.2379 -47.94776,5.112 -54.28635,0.98969 z m -83.18083,-42.07741 c 0.17872,-4.14775 1.0609,-4.99141 2.24946,-2.15114 1.07552,2.57019 0.94326,5.64109 -0.2937,6.82421 -1.23723,1.18309 -2.1172,-0.91979 -1.95552,-4.67307 z m 48.1086,-25.06238 c 0,-4.73113 1.01083,-4.9744 5.58491,-1.34429 3.0717,2.4378 5.58491,5.03729 5.58491,5.77661 0,0.73935 -2.51321,1.34429 -5.58491,1.34429 -3.0717,0 -5.58491,-2.5995 -5.58491,-5.77661 z m 87.49694,-15.58607 c -1.26562,-1.95825 0.99977,-3.56045 5.03419,-3.56045 4.03442,0 11.37746,-4.59372 16.31789,-10.20831 8.81683,-10.01998 10.54226,-13.55884 23.2324,-47.64894 3.46258,-9.30168 7.83251,-16.91212 9.71095,-16.91212 4.70774,0 4.2529,3.7214 -1.81383,14.84091 -2.85084,5.22508 -6.31655,15.91442 -7.70164,23.75407 -1.38505,7.83965 -4.77979,15.08373 -7.54383,16.09803 -2.76407,1.01427 -7.85631,7.54857 -11.31607,14.5207 -4.55216,9.17342 -8.68485,12.67655 -14.95472,12.67655 -4.76535,0 -9.69973,-1.6022 -10.96534,-3.56044 z m 35.3711,-101.47272 c 0,-2.93737 1.67547,-5.34067 3.72327,-5.34067 2.04781,0 3.72328,2.4033 3.72328,5.34067 0,2.93736 -1.67547,5.34066 -3.72328,5.34066 -2.0478,0 -3.72327,-2.4033 -3.72327,-5.34066 z m 78.18875,1.78022 c 0,-1.95825 1.77437,-3.56045 3.94301,-3.56045 2.16867,0 2.90752,1.6022 1.6419,3.56045 -1.26561,1.95824 -3.03998,3.56044 -3.943,3.56044 -0.90306,0 -1.64191,-1.6022 -1.64191,-3.56044 z m -93.38802,-6.23078 c -0.16829,-1.4687 -1.04683,-6.9578 -1.95209,-12.19798 -0.90527,-5.24021 0.0703,-10.54191 2.1678,-11.78157 2.36357,-1.39687 3.81374,3.24149 3.81374,12.19794 0,7.94857 -0.83774,14.45194 -1.86164,14.45194 -1.0239,0 -1.9994,-1.20166 -2.16781,-2.67033 z m -15.66575,-8.01101 c -1.07102,-3.91649 -0.42868,-7.12089 1.42739,-7.12089 1.85609,0 3.37471,3.2044 3.37471,7.12089 0,3.91649 -0.64234,7.1209 -1.42738,7.1209 -0.78507,0 -2.30366,-3.20441 -3.37472,-7.1209 z m -81.97025,1.28632 c -3.68893,-3.52766 -3.03537,-39.64628 1.02014,-56.37329 4.1967,-17.30938 1.76659,-20.53281 -7.05149,-9.35366 -9.18284,11.64152 -13.119,3.94828 -6.14558,-12.01152 4.14222,-9.48022 9.70283,-14.38421 22.04789,-19.44451 9.07976,-3.72181 17.54413,-8.36913 18.80971,-10.32735 1.44714,-2.23909 6.78089,-2.41387 14.37247,-0.47097 6.63928,1.69918 17.43945,2.76823 24.00037,2.37561 19.05315,-1.14008 15.05495,5.53296 -10.53499,17.58308 -13.0535,6.14678 -26.72959,14.35148 -30.39136,18.23265 -3.66176,3.88114 -9.30934,19.68055 -12.55017,35.10982 -6.38676,30.40678 -9.56259,38.51899 -13.57699,34.68014 z m 62.26862,-7.5171 c -6.53902,-27.76521 -9.61808,-36.49457 -12.87251,-36.49457 -4.34098,0 -4.32758,-0.66621 -0.25944,12.89835 3.92063,13.07268 -1.14394,25.09671 -5.77272,13.70519 -1.56913,-3.86158 -2.91585,-14.87612 -2.99276,-24.47668 -0.16234,-20.2582 6.88108,-25.7132 13.46339,-10.42726 l 4.34086,10.08062 2.37661,-10.68134 2.37658,-10.68134 6.43256,11.57145 c 5.85153,10.5263 5.88641,11.57145 0.38639,11.57145 -5.19555,0 -5.68133,3.00513 -3.45329,21.36268 2.65335,21.86183 0.11587,29.1561 -4.02572,11.57145 z m 48.12067,-4.23234 c 0.94845,-5.75471 2.8931,-12.27135 4.32147,-14.48145 1.52136,-2.35394 -0.59138,-4.8156 -5.10086,-5.9433 -7.70122,-1.92586 -14.38315,-13.98805 -10.04616,-18.13537 3.86189,-3.69301 23.32169,19.28987 22.3285,26.37097 -1.71997,12.26289 -6.1756,22.65227 -9.71477,22.65227 -1.93193,0 -2.7366,-4.70842 -1.78815,-10.46312 z m 81.14175,6.01256 c -0.2788,-3.42694 -2.18249,-6.23078 -4.23029,-6.23078 -2.0478,0 -3.72328,-2.02415 -3.72328,-4.49809 0,-7.87839 -26.69051,-42.85297 -49.08928,-64.32534 -11.90911,-11.41658 -21.65292,-22.23142 -21.65292,-24.03301 0,-5.00926 5.99149,-3.90156 11.16982,2.06506 2.54928,2.93737 6.90453,5.34067 9.67825,5.34067 2.77375,0 7.78772,4.0055 11.14215,8.90112 3.3544,4.89561 8.83834,8.96859 12.18646,9.05105 8.28505,0.20394 38.97937,59.97899 36.70415,71.47875 -1.01226,5.11645 -1.87918,6.00935 -2.18506,2.25057 z M 641.52164,359.1737 c 3.58364,-2.6014 6.51573,-8.95927 6.51573,-14.12853 0,-5.16931 1.5297,-9.39872 3.39935,-9.39872 1.86965,0 2.94597,5.20713 2.39186,11.57145 -1.48728,17.08202 -1.38741,16.92129 -10.4453,16.7989 -7.75752,-0.10454 -7.89525,-0.46323 -1.86164,-4.8431 z M 478.62841,599.11948 c 1.26561,-1.95825 -0.40986,-3.56045 -3.72328,-3.56045 -3.31341,0 -4.98888,1.6022 -3.72327,3.56045 1.26562,1.95824 2.94109,3.56045 3.72327,3.56045 0.78219,0 2.45766,-1.60221 3.72328,-3.56045 z m -13.03146,-7.12089 c 0,-4.74725 -2.4822,-7.1209 -7.44655,-7.1209 -7.12277,0 -7.16325,0.2966 -0.93082,6.82421 8.34169,8.73657 8.37737,8.73782 8.37737,0.29657 z m 342.50465,1.82235 c 3.75756,-4.32959 3.33027,-5.75423 -2.33661,-7.79037 -3.81427,-1.37049 -8.9761,-4.9944 -11.47072,-8.05314 -3.90333,-4.78598 -4.55219,-4.29557 -4.65409,3.51784 -0.1114,8.54595 5.72991,17.62421 11.3402,17.62421 1.38747,0 4.59201,-2.38436 7.12119,-5.29854 z m -591.964,-12.50369 c 0,-1.95825 -1.67547,-3.56045 -3.72327,-3.56045 -2.04781,0 -3.72328,1.6022 -3.72328,3.56045 0,1.95824 1.67547,3.56044 3.72328,3.56044 2.0478,0 3.72327,-1.6022 3.72327,-3.56044 z m 532.42816,-1.57007 c 0,-0.86357 -1.67547,-2.56034 -3.72327,-3.7706 -2.0478,-1.21027 -3.72327,-0.50373 -3.72327,1.57007 0,2.07383 1.67547,3.7706 3.72327,3.7706 2.0478,0 3.72327,-0.70654 3.72327,-1.57007 z m 72.29187,-6.44094 c -0.51102,-4.40606 -1.06873,-11.56569 -1.23941,-15.91029 -0.21595,-5.49941 -2.00693,-7.27662 -5.89516,-5.84985 -3.53652,1.29774 -5.58491,-0.0493 -5.58491,-3.67215 0,-3.1469 -2.3736,-5.72161 -5.27466,-5.72161 -2.90103,0 -6.11972,-2.00277 -7.15259,-4.45056 -1.18591,-2.81045 -1.98629,-2.29478 -2.17189,1.39928 -0.16174,3.21745 2.23477,6.77781 5.3255,7.91197 3.09071,1.13413 5.40548,3.30828 5.14396,4.83144 -1.12374,6.54592 0.60806,12.66451 2.95059,10.42442 1.3993,-1.33808 4.66937,2.40039 7.26682,8.30774 5.61499,12.77013 7.90564,13.71299 6.63175,2.72961 z m -578.22092,-9.42948 c -4.26104,-3.53393 -6.66079,-7.46435 -5.33286,-8.73421 1.32798,-1.26988 0.45975,-2.30887 -1.92932,-2.30887 -6.13023,0 -5.48646,2.37085 3.96187,14.59156 4.5681,5.90852 8.92263,8.97292 9.67664,6.80982 0.75403,-2.16315 -2.11536,-6.82435 -6.37633,-10.3583 z m 210.61056,6.09155 c -1.18856,-2.84027 -2.07083,-1.99661 -2.24946,2.15114 -0.16174,3.75328 0.7183,5.85616 1.95553,4.67307 1.2372,-1.18312 1.36945,-4.25402 0.29369,-6.82421 z m 404.96611,-7.63568 c 0.34665,-7.56765 -0.90937,-9.08042 -6.20405,-7.47346 -3.65116,1.10815 -6.63844,0.49151 -6.63844,-1.37029 0,-1.86185 3.34096,-4.22061 7.42435,-5.24174 6.22216,-1.55597 7.03091,-3.78516 4.9947,-13.76691 -1.3363,-6.55071 -3.83953,-12.44442 -5.56269,-13.09714 -1.72319,-0.65279 -3.13309,-4.25773 -3.13309,-8.01101 0,-3.75334 -1.80385,-6.82421 -4.00857,-6.82421 -2.30095,0 -3.53758,5.22705 -2.90299,12.27058 1.59246,17.6754 -1.83236,18.35442 -15.35603,3.0445 -10.25774,-11.61253 -11.58126,-12.27064 -9.31873,-4.63374 1.45041,4.89562 4.12423,10.42319 5.94187,12.28354 1.81764,1.86032 3.30481,7.7575 3.30481,13.10478 0,5.34731 3.7698,15.21826 8.37736,21.9354 10.02577,14.6162 22.36511,13.4292 23.0815,-2.2203 z m -14.70413,-20.18029 c -1.26562,-1.95825 0.31088,-3.56045 3.50354,-3.56045 3.19254,0 5.80464,1.6022 5.80464,3.56045 0,1.95824 -1.57658,3.56044 -3.50354,3.56044 -1.92693,0 -4.53903,-1.6022 -5.80464,-3.56044 z m -11.16982,28.48357 c 1.26561,-1.95825 0.52677,-3.56045 -1.64191,-3.56045 -2.16864,0 -3.943,1.6022 -3.943,3.56045 0,1.95824 0.73884,3.56044 1.6419,3.56044 0.90303,0 2.67739,-1.6022 3.94301,-3.56044 z M 480.49005,538.17164 c 0,-1.95824 -1.67548,-2.57024 -3.72328,-1.35997 -2.0478,1.21026 -3.72327,3.80267 -3.72327,5.76091 0,1.95825 1.67547,2.57025 3.72327,1.35998 2.0478,-1.21027 3.72328,-3.80267 3.72328,-5.76092 z m -57.71075,-3.1402 c 1.26562,-1.95824 0.52677,-3.56044 -1.6419,-3.56044 -2.16865,0 -3.94301,1.6022 -3.94301,3.56044 0,1.95825 0.73885,3.56045 1.6419,3.56045 0.90303,0 2.67739,-1.6022 3.94301,-3.56045 z m 24.20128,-32.42495 c 0,-5.20552 -1.70955,-6.87448 -5.58491,-5.45238 -3.0717,1.12715 -5.58491,0.68434 -5.58491,-0.98406 0,-1.66839 -3.35095,-3.8714 -7.44655,-4.89561 -10.14482,-2.53689 -9.35224,0.41603 2.79246,10.40428 12.61701,10.37665 15.82391,10.5647 15.82391,0.92777 z m 394.34004,-6.47136 c 4.46578,-2.70331 4.36564,-4.03612 -0.66486,-8.84659 -7.39064,-7.06743 -8.81793,-7.06763 -11.65334,-0.002 -4.10072,10.21897 2.37256,14.86888 12.31823,8.84842 z M 346.73221,465.88766 c -4.24963,-4.32566 -7.72657,-9.5929 -7.72657,-11.70501 0,-2.11208 -2.48495,-4.752 -5.52215,-5.86653 -3.14218,-1.15302 -4.57519,-4.38619 -3.32492,-7.50184 1.20846,-3.01148 0.29012,-5.47542 -2.04127,-5.47542 -8.42619,0 -8.58617,11.12913 -0.28148,19.58245 5.25514,5.34919 7.48544,10.78955 5.9707,14.56422 -2.02159,5.03778 -1.49569,5.29356 3.20818,1.56042 4.59532,-3.64701 6.04674,-3.41686 7.92193,1.25615 1.2627,3.1467 3.92174,4.76026 5.90899,3.58583 2.03532,-1.20289 0.23888,-5.56985 -4.11341,-10.00027 z m 213.98176,-11.1244 c -5.42597,-4.80865 -11.55341,-8.74306 -13.61655,-8.74306 -2.06317,0 -2.7157,-1.6022 -1.45008,-3.56045 1.26561,-1.95824 0.52677,-3.56044 -1.64191,-3.56044 -2.16864,0 -3.943,1.71662 -3.943,3.81477 0,2.0981 -2.63286,1.297 -5.85087,-1.78022 -3.21796,-3.07728 -9.28725,-5.595 -13.48734,-5.595 -6.58623,0 -6.95478,0.78552 -2.67954,5.71158 2.72633,3.14137 8.3768,7.22928 12.55652,9.08427 4.17981,1.85499 14.30148,7.0357 22.49269,11.51272 17.45378,9.53954 21.7611,5.64817 7.62008,-6.88417 z m -232.87815,9.05917 c 0,-1.95824 -0.73885,-3.56045 -1.64191,-3.56045 -0.90303,0 -2.67739,1.60221 -3.943,3.56045 -1.26562,1.95825 -0.52677,3.56045 1.6419,3.56045 2.16864,0 3.94301,-1.6022 3.94301,-3.56045 z m 34.13664,-11.50577 c -2.76294,-2.6421 -3.24747,-1.25199 -1.62797,4.67028 1.31661,4.81444 3.00433,6.42838 3.93384,3.7618 0.89537,-2.56865 -0.14208,-6.36309 -2.30587,-8.43208 z m 116.65595,4.38488 c -1.26562,-1.95825 -3.97658,-3.56045 -6.02438,-3.56045 -2.0478,0 -2.68778,1.6022 -1.42217,3.56045 1.26562,1.95824 3.97658,3.56044 6.02438,3.56044 2.0478,0 2.68778,-1.6022 1.42217,-3.56044 z m -124.72968,-5.13052 c 0,-0.86356 -1.67547,-2.56033 -3.72327,-3.7706 -2.0478,-1.21026 -3.72327,-0.50373 -3.72327,1.57007 0,2.07384 1.67547,3.7706 3.72327,3.7706 2.0478,0 3.72327,-0.70653 3.72327,-1.57007 z m 193.61025,-34.03439 c 0,-1.95825 -1.67548,-3.56045 -3.72328,-3.56045 -2.0478,0 -3.72327,1.6022 -3.72327,3.56045 0,1.95824 1.67547,3.56044 3.72327,3.56044 2.0478,0 3.72328,-1.6022 3.72328,-3.56044 z m -157.8001,-14.30317 c -7.94972,-3.79415 -15.8052,-6.09993 -17.4567,-5.12391 -1.65147,0.97602 -4.73017,-1.06295 -6.84156,-4.53105 -2.11139,-3.46813 -3.88987,-4.30293 -3.95212,-1.85511 -0.0623,2.44779 -0.5321,5.60087 -1.04404,7.00682 -1.06709,2.93044 25.16052,11.07287 36.30192,11.27004 4.89626,0.0866 2.49635,-2.23087 -7.0075,-6.76679 z m 451.93873,-28.42219 c 0,-1.95824 -3.76983,-3.44782 -8.37736,-3.31019 -7.99352,0.23898 -8.03617,0.39045 -0.93082,3.31019 4.0956,1.68298 7.8654,3.17256 8.37736,3.31019 0.51194,0.13758 0.93082,-1.35194 0.93082,-3.31019 z m 74.46548,0 c 0,-1.95824 -1.67547,-3.56045 -3.72327,-3.56045 -2.0478,0 -3.72328,1.60221 -3.72328,3.56045 0,1.95825 1.67548,3.56045 3.72328,3.56045 2.0478,0 3.72327,-1.6022 3.72327,-3.56045 z m -413.2834,-17.80223 c 0,-1.95825 -0.73885,-3.56045 -1.64191,-3.56045 -0.90302,0 -2.67739,1.6022 -3.943,3.56045 -1.26562,1.95824 -0.52677,3.56045 1.6419,3.56045 2.16865,0 3.94301,-1.60221 3.94301,-3.56045 z m -93.08185,-1.57007 c 0,-0.86357 -1.67547,-2.56033 -3.72327,-3.7706 -2.0478,-1.21027 -3.72328,-0.50373 -3.72328,1.57007 0,2.07383 1.67548,3.7706 3.72328,3.7706 2.0478,0 3.72327,-0.70654 3.72327,-1.57007 z m 74.46548,-5.55082 c -7.29154,-4.5061 -12.22047,-4.5061 -9.30819,0 1.26562,1.95824 5.13431,3.53592 8.5971,3.50593 5.42583,-0.047 5.52412,-0.53154 0.71109,-3.50593 z m -37.23274,-15.81186 c 0,-0.86357 -1.67547,-2.56033 -3.72327,-3.7706 -2.0478,-1.21027 -3.72328,-0.50373 -3.72328,1.57007 0,2.07383 1.67548,3.7706 3.72328,3.7706 2.0478,0 3.72327,-0.70653 3.72327,-1.57007 z m 67.01893,-5.34067 c 0,-3.80093 -1.9652,-8.07227 -4.36719,-9.49181 -4.96402,-2.93378 -32.86555,-8.25021 -32.86555,-6.26228 0,3.00581 13.77582,14.0743 22.36955,17.9733 13.01588,5.90536 14.86319,5.62952 14.86319,-2.21924 z m 295.42346,-12.82527 c -1.21262,-3.02182 -3.00331,-4.73064 -3.97925,-3.79734 -0.97598,0.93332 -0.6701,3.40572 0.67969,5.49425 3.67133,5.68053 5.81715,4.57697 3.29956,-1.69691 z m -388.50531,-4.97696 c 0,-5.15792 -7.52441,-8.47124 -24.99594,-11.00682 -12.60811,-1.82976 -15.96007,-1.22591 -15.96007,2.87527 0,3.39738 2.51357,4.5629 7.27349,3.37257 4.00043,-1.00037 10.28344,0.36402 13.96228,3.03196 7.71891,5.59791 19.72024,6.64892 19.72024,1.72702 z M 789.3192,286.22776 c -4.39772,-8.0682 -9.50212,-14.66943 -11.34318,-14.66943 -1.84105,0 -3.34734,-1.60221 -3.34734,-3.56045 0,-3.61744 -13.35014,-17.80223 -16.75473,-17.80223 -5.22405,0 -0.65154,10.5418 8.58685,19.79665 5.74668,5.75693 14.30682,15.76654 19.02257,22.24362 11.49139,15.7834 13.76908,12.2158 3.83583,-6.00816 z M 385.93441,279.6435 c -3.78479,-3.61924 -6.9076,1.82967 -3.80227,6.63445 2.34575,3.62961 3.22278,3.6324 4.48392,0.0142 0.86231,-2.47377 0.55555,-5.46571 -0.68165,-6.64883 z m 132.21509,0.72693 c -0.0727,-1.90928 -3.74835,-4.00838 -8.16871,-4.6647 -6.99055,-1.03785 -7.37331,-0.47732 -2.93993,4.30524 5.4481,5.87718 11.32531,6.0674 11.10864,0.35946 z m -166.1124,-8.8121 c 1.26561,-1.95825 0.62563,-3.56045 -1.42218,-3.56045 -2.0478,0 -4.75876,1.6022 -6.02437,3.56045 -1.26562,1.95824 -0.62563,3.56044 1.42217,3.56044 2.0478,0 4.75876,-1.6022 6.02438,-3.56044 z m 129.38376,-9.47891 c -2.55976,-0.9877 -6.74845,-0.9877 -9.30818,0 -2.55977,0.9877 -0.46541,1.79586 4.65409,1.79586 5.1195,0 7.21383,-0.80816 4.65409,-1.79586 z m 44.67929,0 c -2.55977,-0.9877 -6.74845,-0.9877 -9.30818,0 -2.55977,0.9877 -0.46541,1.79586 4.65409,1.79586 5.1195,0 7.21383,-0.80816 4.65409,-1.79586 z m -77.77311,-17.22444 c -1.17876,-2.93736 -2.62238,-5.34066 -3.2081,-5.34066 -0.58571,0 -2.02933,2.4033 -3.20809,5.34066 -1.29233,3.22061 -0.0179,5.34067 3.20809,5.34067 3.22698,0 4.50043,-2.12006 3.2081,-5.34067 z m 110.35176,-1.78021 c 0,-1.95825 -3.76983,-3.44783 -8.37737,-3.31019 -7.99351,0.23897 -8.03616,0.39045 -0.93082,3.31019 4.0956,1.68296 7.8654,3.17254 8.37737,3.31017 0.51193,0.13758 0.93082,-1.35194 0.93082,-3.31017 z m 268.07572,-3.56045 c 0,-1.95825 -1.77437,-3.56045 -3.94301,-3.56045 -2.16867,0 -2.90752,1.6022 -1.6419,3.56045 1.26561,1.95824 3.03997,3.56045 3.943,3.56045 0.90306,0 1.64191,-1.60221 1.64191,-3.56045 z M 592.18826,228.23955 c 0,-1.63185 -3.44983,-2.96702 -7.66628,-2.96702 -4.21647,0 -6.80337,1.33517 -5.7487,2.96702 1.05467,1.63191 4.5045,2.96708 7.66628,2.96708 3.1618,0 5.7487,-1.33517 5.7487,-2.96708 z m 223.39643,2.58381 c 0,-0.86357 -1.67547,-2.56034 -3.72327,-3.7706 -2.0478,-1.21027 -3.72327,-0.50373 -3.72327,1.57007 0,2.07383 1.67547,3.7706 3.72327,3.7706 2.0478,0 3.72327,-0.70654 3.72327,-1.57007 z m -376.05066,-5.34067 c 0,-1.84269 -2.09435,-4.61041 -4.65409,-6.15049 -7.10999,-4.27772 -84.70448,-10.83803 -84.70448,-7.16143 0,1.75023 -2.51321,2.26006 -5.58491,1.13285 -3.0717,-1.12715 -5.58491,-0.49746 -5.58491,1.39929 0,1.8968 4.08979,3.44873 9.08845,3.44873 4.99863,0 10.17425,1.67999 11.50128,3.73334 1.55231,2.40185 3.95451,2.519 6.73549,0.32862 4.2376,-3.33779 23.98441,-3.3019 30.70394,0.0558 1.87265,0.93574 10.10675,2.14358 18.29795,2.68406 8.1912,0.54048 15.5912,1.6345 16.44448,2.43113 2.86814,2.67768 7.7568,1.47904 7.7568,-1.90202 z m 121.85966,-2.36126 c -1.23723,-1.18313 -4.44857,-1.30959 -7.1363,-0.28085 -2.97016,1.13658 -2.08792,1.98026 2.24952,2.15108 3.92492,0.15466 6.12398,-0.68688 4.88678,-1.87001 z m -14.8931,-3.56045 c -1.23723,-1.18312 -4.44856,-1.30959 -7.13629,-0.28085 -2.97016,1.13658 -2.08792,1.98026 2.24951,2.15108 3.92493,0.15467 6.12398,-0.68688 4.88678,-1.87 z m 171.2706,-3.56045 c -1.23723,-1.18312 -4.44857,-1.30959 -7.13629,-0.28084 -2.97016,1.13658 -2.08793,1.98026 2.24951,2.15107 3.92493,0.15467 6.12398,-0.68688 4.88678,-1.87 z m 90.0567,-27.22257 c -0.85328,-0.48958 -6.5271,-4.89562 -12.60855,-9.79123 -8.41719,-6.77593 -9.79424,-7.20096 -5.76762,-1.78022 7.01709,9.44663 15.84062,16.36976 18.10438,14.20501 1.00269,-0.9589 1.12502,-2.14401 0.27194,-2.63356 z M 460.7866,180.33019 c 0.76536,-2.19848 -2.44676,-4.98047 -7.13805,-6.18219 -10.9651,-2.80879 -58.1195,-2.8348 -69.03281,-0.0382 -13.08415,3.35306 -9.95323,9.48244 3.72328,7.28915 6.65533,-1.06734 22.99121,-0.64789 36.30192,0.93209 29.22886,3.4695 34.33963,3.18654 36.14566,-2.001 z m -177.63007,-4.69378 c 0,-1.84269 -1.67547,-4.34053 -3.72327,-5.5508 -2.04781,-1.21026 -3.72328,0.29737 -3.72328,3.35033 0,3.05292 1.67547,5.55079 3.72328,5.55079 2.0478,0 3.72327,-1.50763 3.72327,-3.35032 z m 531.17074,-8.22113 c -1.03287,-2.44782 -1.87799,-0.44506 -1.87799,4.45056 0,4.89561 0.84512,6.89835 1.87799,4.45056 1.03287,-2.44783 1.03287,-6.45333 0,-8.90112 z m -482.76818,-6.4409 c 0,-4.03208 -1.60232,-6.38406 -3.56067,-5.22665 -1.95838,1.1574 -2.61684,4.45636 -1.46331,7.33101 2.95342,7.35984 5.02398,6.49255 5.02398,-2.10436 z m 232.70462,3.77057 c -1.26562,-1.95825 -3.87772,-3.56045 -5.80465,-3.56045 -1.92695,0 -3.50354,1.6022 -3.50354,3.56045 0,1.95824 2.6121,3.56044 5.80465,3.56044 3.19257,0 4.76915,-1.6022 3.50354,-3.56044 z m -201.36133,-5.72161 c 3.23922,-1.18862 5.88945,-3.78812 5.88945,-5.77661 0,-2.19535 -2.0515,-1.98736 -5.22283,0.52953 -4.01062,3.18296 -5.67076,3.07754 -7.15262,-0.45417 -1.22719,-2.92478 -2.03678,-2.33078 -2.22369,1.63163 -0.3258,6.90988 0.24395,7.17618 8.70969,4.06962 z m 19.30875,-7.5559 c -3.78478,-3.61923 -6.90759,1.8297 -3.80226,6.63448 2.34575,3.62958 3.22277,3.6324 4.48392,0.0142 0.86231,-2.47374 0.55554,-5.46571 -0.68166,-6.64883 z m -49.17322,-1.92378 c 1.23443,1.18048 2.24445,0.10568 2.24445,-2.38846 0,-2.56814 2.42207,-3.64601 5.58491,-2.48539 3.07171,1.12718 5.58492,0.30133 5.58492,-1.83525 0,-2.67142 1.64071,-2.58252 5.25342,0.28455 2.88941,2.2931 6.1227,2.82431 7.18511,1.1805 1.06238,-1.64385 7.49456,-3.36767 14.29374,-3.83076 25.24785,-1.71955 72.37761,-10.65693 85.89676,-16.28884 7.91228,-3.29618 13.96228,-4.25305 13.96228,-2.2083 0,1.98453 1.67547,3.60821 3.72327,3.60821 2.0478,0 3.72328,-2.60169 3.72328,-5.78154 0,-4.84913 -3.15258,-5.46639 -19.54719,-3.82731 -10.75097,1.07483 -30.43777,4.52832 -43.74847,7.67442 -13.31071,3.14609 -28.38996,6.30771 -33.50947,7.02581 -5.1195,0.71807 -14.75348,2.46987 -21.40882,3.89285 -10.05576,2.15 -12.10064,1.53931 -12.10064,-3.61374 0,-4.8209 -1.86447,-5.62721 -8.37737,-3.62291 -4.60756,1.41794 -15.49814,4.3724 -24.20128,6.56544 -15.40926,3.88288 -21.45859,9.48924 -10.239,9.48924 3.0717,0 5.58491,2.36365 5.58491,5.25254 0,4.07147 2.00696,4.52288 8.92537,2.00755 4.90892,-1.78478 9.93534,-2.27917 11.16982,-1.09869 z m 86.87137,-1.19161 c -1.23723,-1.18309 -4.44857,-1.30959 -7.13629,-0.28113 -2.97016,1.13661 -2.08793,1.98026 2.24951,2.15111 3.92493,0.15466 6.12398,-0.68691 4.88678,-1.87001 z m 240.22873,-0.20679 c -2.55977,-0.98772 -6.74845,-0.98772 -9.30818,0 -2.55977,0.9877 -0.46541,1.79583 4.65409,1.79583 5.1195,0 7.21383,-0.80813 4.65409,-1.79583 z m 136.83032,-2.77253 c 0,-7.54049 -5.96266,-9.77041 -10.90336,-4.0776 -3.28536,3.78553 -3.16526,5.39083 0.50893,6.8006 8.22224,3.15481 10.39443,2.58577 10.39443,-2.723 z m -242.47822,-0.65518 c 21.82387,-4.1739 11.70112,-7.65943 -17.22014,-5.9294 -36.64452,2.19201 -48.85212,7.89625 -17.22014,8.04641 12.54279,0.0595 28.0409,-0.8931 34.44028,-2.11701 z m 27.38605,-4.89562 c -4.39611,-3.91649 -8.90071,-7.12089 -10.01024,-7.12089 -1.10951,0 -2.0173,3.2044 -2.0173,7.12089 0,5.35517 2.4822,7.1209 10.01024,7.1209 l 10.01025,0 z M 711.33303,129.1406 c 0,-1.95825 -1.53846,-3.56045 -3.41874,-3.56045 -1.88035,0 -6.06903,-0.97252 -9.30819,-2.16116 -3.86473,-1.41817 -5.88944,-0.19398 -5.88944,3.56044 0,3.72941 3.241,5.72161 9.30818,5.72161 5.1195,0 9.30819,-1.6022 9.30819,-3.56044 z m -59.57239,-3.56045 c 0,-1.95825 -1.67547,-3.56045 -3.72327,-3.56045 -2.0478,0 -3.72327,1.6022 -3.72327,3.56045 0,1.95824 1.67547,3.56045 3.72327,3.56045 2.0478,0 3.72327,-1.60221 3.72327,-3.56045 z M 490.12737,112.2465 c -4.06731,-3.88943 -6.85634,2.29598 -3.93616,8.72954 2.76893,6.10035 2.96963,6.09477 4.51237,-0.12505 0.88799,-3.58018 0.62873,-7.45218 -0.57621,-8.6044 z m 76.87178,4.74483 c 1.6697,-2.36391 2.75764,-1.4452 2.79246,2.35804 0.0298,3.42691 1.85535,6.23078 4.05327,6.23078 7.92673,0 1.30246,-12.49013 -7.24001,-13.65109 -5.56862,-0.75681 -7.84508,0.21448 -6.25793,2.67033 1.48356,2.29549 -0.61249,3.85987 -5.17168,3.85987 -4.21645,0 -7.66628,1.4522 -7.66628,3.2271 0,4.18808 15.92548,0.35174 19.49017,-4.69503 z m -181.45259,1.46793 c 1.26562,-1.95825 0.52677,-3.56045 -1.6419,-3.56045 -2.16865,0 -3.94301,1.6022 -3.94301,3.56045 0,1.95824 0.73885,3.56044 1.6419,3.56044 0.90303,0 2.6774,-1.6022 3.94301,-3.56044 z m 132.17622,-1.99035 c 0,-3.05296 -1.70281,-4.54444 -3.784,-3.31443 -2.08119,1.23 -2.82007,3.72787 -1.64188,5.55079 3.19168,4.93851 5.42588,4.01766 5.42588,-2.23636 z m 11.16983,0.21021 c 0,-2.93737 -1.62291,-5.34067 -3.60646,-5.34067 -1.98349,0 -2.64197,2.4033 -1.46327,5.34067 1.17876,2.93737 2.80163,5.34067 3.60645,5.34067 0.80476,0 1.46328,-2.4033 1.46328,-5.34067 z m 98.66675,1.78022 c 1.26562,-1.95824 0.52677,-3.56044 -1.6419,-3.56044 -2.16864,0 -3.94301,1.6022 -3.94301,3.56044 0,1.95825 0.73885,3.56045 1.64191,3.56045 0.90302,0 2.67739,-1.6022 3.943,-3.56045 z m 147.06932,-1.5701 c 0,-3.75795 -7.14538,-5.33679 -9.27065,-2.04842 -1.28626,1.99017 0.27344,3.61852 3.46601,3.61852 3.19254,0 5.80464,-0.70653 5.80464,-1.5701 z m -14.89309,-5.55079 c 0,-1.95825 -1.67548,-3.56045 -3.72328,-3.56045 -2.0478,0 -3.72327,1.6022 -3.72327,3.56045 0,1.95824 1.67547,3.56045 3.72327,3.56045 2.0478,0 3.72328,-1.60221 3.72328,-3.56045 z M 516.93982,86.931816 c 1.14335,-3.314775 -0.51253,-4.190275 -5.29226,-2.79814 -3.82594,1.114334 -12.76949,2.969526 -19.87457,4.122627 -20.43127,3.315829 -18.58574,5.81193 3.40391,4.603885 12.77455,-0.701807 20.70531,-2.862201 21.76292,-5.928372 z m 26.84588,-0.683007 c 0,-4.774473 -6.29037,-7.155159 -12.69547,-4.80478 -8.78725,3.22454 -7.17391,6.682075 3.38994,7.264991 5.11804,0.282273 9.30553,-0.824713 9.30553,-2.460211 z m 20.47801,-3.393932 c 6.20479,-2.549678 5.39204,-3.10169 -4.87383,-3.310189 -7.32037,-0.148684 -11.38654,1.194686 -10.01927,3.310189 2.68258,4.150683 4.79218,4.150683 14.8931,0 z m -50.2642,793.979593 c 0,-1.95825 1.67547,-3.56045 3.72327,-3.56045 2.0478,0 3.72328,1.6022 3.72328,3.56045 0,1.95824 -1.67548,3.56045 -3.72328,3.56045 -2.0478,0 -3.72327,-1.60221 -3.72327,-3.56045 z m -11.16982,-3.77066 c 0,-2.07389 1.67547,-2.78028 3.72327,-1.57001 2.0478,1.21027 3.72328,2.90703 3.72328,3.77065 0,0.86334 -1.67548,1.57002 -3.72328,1.57002 -2.0478,0 -3.72327,-1.69677 -3.72327,-3.77066 z m -6.51573,-9.26884 c -2.55977,-0.98752 -4.65409,-4.8667 -4.65409,-8.61998 0,-3.75328 2.09432,-6.7996 4.65409,-6.76969 8.53062,0.0997 15.07497,6.27892 12.76002,12.0477 -2.34912,5.85423 -4.67268,6.46263 -12.76002,3.34197 z M 219.32019,716.61438 c -2.29714,-12.44618 -1.34514,-17.23199 2.66492,-13.39725 1.16833,1.11713 1.56416,7.39234 0.87961,13.94499 l -1.24461,11.91382 z M 886.3269,705.93304 c 0,-1.95824 1.77436,-3.56044 3.94301,-3.56044 2.16867,0 2.90751,1.6022 1.6419,3.56044 -1.26562,1.95825 -3.03998,3.56045 -3.94301,3.56045 -0.90305,0 -1.6419,-1.6022 -1.6419,-3.56045 z m 14.89309,-8.77579 c 0,-1.04819 3.35095,-5.10995 7.44655,-9.02644 5.63275,-5.38647 7.44655,-5.85061 7.44655,-1.90555 0,2.86858 -3.35095,6.93034 -7.44655,9.02644 -4.0956,2.09611 -7.44655,2.95346 -7.44655,1.90555 z m 24.39784,-19.40375 c -1.19883,-1.85487 -0.59265,-4.31044 1.34708,-5.45679 1.93971,-1.14641 4.50758,-0.56674 5.70635,1.28817 1.19884,1.85488 0.59266,4.31044 -1.34708,5.45679 -1.9397,1.14641 -4.50757,0.56671 -5.70635,-1.28817 z m 12.8349,-8.99505 c 0,-3.05296 1.67548,-5.55082 3.72328,-5.55082 2.0478,0 3.72327,1.50763 3.72327,3.35029 0,1.84269 -1.67547,4.34056 -3.72327,5.55082 -2.0478,1.21027 -3.72328,-0.29731 -3.72328,-3.35029 z m -7.30819,-60.38976 c -2.1239,-5.34198 -3.86163,-12.71822 -3.86163,-16.39164 0,-3.67347 -1.67547,-7.6692 -3.72327,-8.87947 -2.0478,-1.21026 -3.72328,-3.80267 -3.72328,-5.76091 0,-7.38522 7.51184,1.31474 14.87031,17.22225 5.01397,10.83928 6.3763,17.71142 3.96764,20.01475 -2.40866,2.30332 -4.99404,0.17261 -7.52977,-6.20498 z M 177.04322,574.19647 c -1.26561,-1.95825 0.31097,-3.56045 3.50354,-3.56045 3.19255,0 5.80465,1.6022 5.80465,3.56045 0,1.95824 -1.57658,3.56044 -3.50354,3.56044 -1.92696,0 -4.53903,-1.6022 -5.80465,-3.56044 z m 705.5604,-69.63906 c 0,-3.05292 1.70282,-4.54441 3.78401,-3.3144 2.08119,1.22997 2.82007,3.72784 1.64188,5.55079 -3.19168,4.93848 -5.42589,4.01766 -5.42589,-2.23639 z M 22.527357,503.30382 c 0,-13.21421 58.119442,-37.34042 69.051629,-28.6643 6.569255,5.21358 7.009257,12.74287 0.953784,16.32169 -2.453012,1.44975 -13.151795,2.9272 -23.77507,3.28321 -10.838867,0.36323 -23.133415,3.20486 -28.016206,6.47534 -9.572239,6.41143 -18.214137,7.63747 -18.214137,2.58406 z M 180.22561,470.05321 c -6.21268,-4.40606 -10.62214,-9.91365 -9.79882,-12.23905 0.82332,-2.32542 -1.91609,-7.49177 -6.08756,-11.48081 -6.5481,-6.26175 -7.14996,-9.47706 -4.40454,-23.52988 1.74896,-8.95242 4.10805,-17.16466 5.24243,-18.2494 4.75024,-4.5425 9.72072,3.54846 11.85425,19.29634 3.6074,26.62658 5.22566,31.98762 11.45321,37.94282 8.1579,7.80114 18.57443,6.96708 27.50796,-2.2026 7.26771,-7.45982 7.59161,-7.49358 7.59161,-0.79128 0,8.9966 -12.5365,19.26487 -23.52049,19.26487 -4.69824,0 -13.62537,-3.60497 -19.83805,-8.01101 z M 322.40993,343.01327 c -3.74811,-5.79929 3.37633,-6.92427 10.83268,-1.7105 7.01306,4.90385 6.99495,5.02493 -0.75214,5.02493 -4.36617,0 -8.90237,-1.49151 -10.08054,-3.31443 z M 337.144,307.16279 c -1.26561,-1.95825 -0.52677,-3.56045 1.6419,-3.56045 2.16865,0 3.94301,1.6022 3.94301,3.56045 0,1.95824 -0.73885,3.56045 -1.6419,3.56045 -0.90303,0 -2.67739,-1.60221 -3.94301,-3.56045 z m 560.35272,-48.06603 c 0,-2.93737 -2.51321,-5.34067 -5.58491,-5.34067 -3.47504,0 -5.58491,-3.36262 -5.58491,-8.90111 0,-4.8956 1.78836,-8.90111 3.97419,-8.90111 2.27978,0 2.9665,3.03595 1.61072,7.1209 -1.67723,5.0534 -0.66909,7.12088 3.47235,7.12088 3.35363,0 5.83583,3.02877 5.83583,7.12089 0,3.91649 -0.83773,7.12089 -1.86163,7.12089 -1.0239,0 -1.86164,-2.4033 -1.86164,-5.34067 z M 210.70957,175.66902 c -1.3519,-2.09175 -1.94024,-3.92578 -1.30743,-4.0756 0.6328,-0.14982 4.40293,-0.85411 8.37808,-1.56509 3.97517,-0.71097 11.09592,-2.22112 15.82391,-3.35587 5.59719,-1.34335 8.59639,-0.48676 8.59639,2.4552 0,2.48513 -3.76983,4.65677 -8.37737,4.82591 -4.60757,0.16919 -11.13995,1.48001 -14.51648,2.91304 -3.37653,1.43307 -7.24522,0.89416 -8.5971,-1.19759 z M 432.1445,69.503004 c 0.0298,-1.468698 1.68116,-5.073636 3.66626,-8.011004 2.91857,-4.318679 3.62012,-3.807684 3.66626,2.670335 0.0313,4.406038 -1.61846,8.011004 -3.66626,8.011004 -2.0478,0 -3.69763,-1.201665 -3.66626,-2.670335 z m 14.83608,-10.799489 c 0,-1.958245 4.03302,-4.528403 8.96228,-5.711469 4.92926,-1.183065 11.63115,-3.130373 14.89309,-4.327366 3.73385,-1.370145 5.93082,-0.276576 5.93082,2.951866 0,2.8205 -2.09436,5.194093 -4.65409,5.274673 -2.55977,0.08061 -9.26166,1.322379 -14.8931,2.759603 -6.16559,1.573546 -10.239,1.19668 -10.239,-0.947307 z m 63.29566,-17.291578 c 0,-4.279059 13.01823,-11.73751 20.478,-11.732269 6.99192,0.0057 6.90995,0.432722 -1.34327,7.00767 -8.49689,6.769007 -19.13473,9.395648 -19.13473,4.724599 z M 558.6788,31.353476 c 0,-0.910221 3.35094,-3.369891 7.44654,-5.46594 5.94348,-3.041732 7.44655,-2.707677 7.44655,1.654952 0,3.092319 -3.23374,5.465941 -7.44655,5.465941 -4.0956,0 -7.44654,-0.744732 -7.44654,-1.654953 z m 22.33964,-5.46594 c 0,-1.958246 4.60754,-3.535922 10.239,-3.505929 7.97874,0.04244 9.00613,0.816425 4.6541,3.505929 -7.28469,4.501857 -14.8931,4.501857 -14.8931,0 z"
       style="fill:#000000" />
  </g>
</svg>
